<?xml version="1.0" encoding="utf-8"?>
<!-- Generator: Adobe Illustrator 22.1.0, SVG Export Plug-In . SVG Version: 6.00 Build 0)  -->
<svg version="1.1" id="Слой_1" xmlns="http://www.w3.org/2000/svg" xmlns:xlink="http://www.w3.org/1999/xlink" x="0px" y="0px"
	 viewBox="0 0 740 680" style="enable-background:new 0 0 740 680;" xml:space="preserve">
<style type="text/css">
	.st0{fill:#DDE3E9;}
	.st1{fill:#C5CFD6;}
	.st2{fill:#AFB9C5;}
	.st3{fill:#89C5CC;}
	.st4{fill:#F2F2F2;}
</style>
<title>Scene/Home</title>
<desc>Created with Sketch.</desc>
<g id="Big-Leaf-Plant" transform="translate(16.000000, 371.000000)">
	<g id="Big-Ass-Leaf" transform="translate(22.000000, 0.000000)">
		<path id="leaf" class="st0" d="M34.8-59.8c2.9-0.3,5.9-0.2,8.6,0.9c5.7,2.4,7.3,9.1,7.2,14.5c-0.1,5.9-1.3,12.2,3.1,17
			c2,2.2,4.6,3.8,6.6,6c2.1,2.4,3.8,5.1,5.1,8c2.3,5.3,3.4,11.6,1.3,17.2c-1.8,4.9-6.5,9.4-5.5,15c1,5.8,6.9,10.3,10.6,14.6
			c4.2,4.9,8,11.2,8.6,17.7c0.6,6.2-2.1,12.4-6.2,17.1C65.9,77.5,53.5,82,41,82c-5.3,0-11.3-0.3-15.9-3.1c-1.4-0.9-2.2-1.9-3-3.2
			c-0.8-1.2-1.8-2-2.9-2.9c-2.5-1.9-4.4-4.5-5.5-7.4c-4.5-11.2-0.9-25.1,5.4-35.1c1.5-2.4,2.7-4.6,2-7.5c-0.8-2.9-2.6-5.6-4.3-8.1
			c-1.6-2.5-3.5-4.9-4.8-7.6c-1.3-2.8-1.7-5.8-1.5-8.9c0.4-5.8,3-11.2,6.5-15.9c3.4-4.5,7.4-8.8,7.5-14.7c0-6.3-4.2-11.8-2.4-18.2
			c0.7-2.6,2.2-5.3,4.6-6.9C29-59,32.1-59.5,34.8-59.8z"/>
		<path id="middle-thing" class="st1" d="M32.9-49.8c0.1-0.8,1.1-1.3,1.8-1.1c1,0.3,1,1.3,1,2.1c-0.1,2.6,0.3,5.2,0.9,7.8
			c1.3,5.3,3.8,10.2,5.7,15.4c1.9,5.1,2.8,10.4,1.7,15.8C43-4.8,41.3,0.2,40.2,5.3c-1,4.5-2,9.3-0.5,13.8c1.4,4.3,4.5,7.8,6.8,11.8
			c4.7,8.1,6.7,17.1,7,26.3c0.1,4.3,0,8.6-1,12.8c-0.6,2.4-1.3,5.7-3.4,7.4c-1,0.8-2.6,1-3.4-0.1c-0.8-1.1-0.1-2.7,0.1-3.9
			c1-4.9,1.2-10,1-15c-0.2-4.9-0.8-9.7-2.3-14.4c-1.4-4.3-3.6-8.2-6.1-11.9c-2.6-3.8-5.3-7.7-6.3-12.2c-1.1-4.6-0.2-9.3,1-13.9
			c1.2-4.8,2.9-9.5,4.6-14.1c1.6-4.5,2.2-8.8,1.3-13.6C37.1-31.2,32.3-40,32.9-49.8z"/>
	</g>
	<g id="Big-Ass-Leaf_1_" transform="translate(32.000000, 11.000000)">
		<path id="leaf_1_" class="st0" d="M100.4-59.4c3.5,1.1,7.1,2.8,9.6,5.5c5.4,5.8,3.7,14.5,0.8,20.9c-3.2,6.9-8,13.8-5.3,21.7
			c1.3,3.6,3.4,6.9,4.6,10.6c1.3,3.9,1.8,8,1.7,12.1c-0.1,7.5-2.1,15.5-7.5,21c-4.8,4.9-12.6,7.7-14.3,14.8C88,54.7,92.6,63,94.6,70
			c2.3,8,3.5,17.4,0.8,25.4c-2.6,7.6-9,13.6-16.3,17c-14.6,6.8-31.6,5.7-46.2-0.8c-6.2-2.8-13.1-6.2-17-11.9
			c-1.2-1.8-1.5-3.3-1.8-5.4c-0.2-1.9-1-3.3-1.9-5c-2-3.6-2.7-7.6-2.6-11.6C10.1,62,21.7,47.5,34.5,39c3-2,5.7-4.1,6.3-7.8
			c0.7-3.9-0.1-8-0.7-11.8c-0.6-3.8-1.5-7.6-1.6-11.5c-0.1-4,1-7.7,3-11.3c3.6-6.6,9.4-11.7,16-15.4c6.4-3.5,13.4-6.6,16.5-13.5
			c3.3-7.4,1.4-16.2,6.8-22.8c2.3-2.7,5.4-5.2,9.1-5.8C93.2-61.4,97.1-60.4,100.4-59.4z"/>
		<path id="middle-thing_1_" class="st1" d="M93.2-47.2c0.5-1,1.9-1,2.7-0.4c1.1,0.9,0.5,2,0,3c-1.5,3.1-2.4,6.3-3,9.7
			c-1.2,7-1,14.1-1.4,21.2C91.1-6.6,89.4,0.1,85.3,6c-3.9,5.5-8.5,10.5-12.4,16c-3.5,4.8-7.2,9.9-7.8,16c-0.6,5.9,1.2,11.7,1.8,17.5
			c1.2,12-1.1,23.7-5.6,34.8c-2.1,5.1-4.5,10.2-7.9,14.7c-1.9,2.6-4.6,6-7.9,6.9c-1.5,0.4-3.6-0.1-3.9-1.9c-0.3-1.7,1.3-3.3,2.2-4.5
			c3.8-5.3,6.7-11.2,9-17.3c2.3-5.9,4.1-11.9,4.8-18.2c0.6-5.8,0.1-11.6-0.9-17.4c-1-5.9-2.1-11.9-1-17.8c1.2-6,4.6-11.2,8.4-15.9
			c4-5,8.3-9.7,12.7-14.3C81.1,0,84-4.8,85.5-10.9C88.3-23,87.3-35.9,93.2-47.2z"/>
	</g>
	<g id="Big-Ass-Leaf_2_" transform="translate(0.000000, 57.000000)">
		<path id="leaf_2_" class="st1" d="M22.8-61c5.9,0,11.1,3.1,14.6,7.6c4.2,5.2,5,11.5,6.7,17.7c0.8,3.1,2.3,6.1,4.8,8.2
			c2.3,1.9,5.3,2.3,8,3.2c5.5,1.9,10,6.3,11.8,11.8C71-5.8,68.7,0.9,69.1,7.6c0.4,6.2,6.5,10.1,11.4,13c4.8,2.9,9.2,5.7,10.7,11.4
			c1.5,6.1,2.1,12.8-0.1,18.8c-3.6,10-14,14.3-24.1,15c-9.2,0.6-20.7-0.4-27.6-7c-4.1-4-5.6-9.5-5.4-15.1c0.1-3.4,0.8-6.9,1.7-10.2
			c0.6-2.4,1.5-4.7,1.7-7.1c0.6-6.5-5.4-7.7-10.5-9.5c-6.5-2.3-11-6.5-14.2-12.5C9.8-1.1,8.6-7.3,10.3-13.4c0.9-3.1,2.5-5.9,4.7-8.3
			c1-1.1,2.3-1.9,3.2-3.1c0.8-1,0.6-2.4,0.4-3.6c-1.3-5.6-5.4-10.3-6.8-15.9c-1.3-5.1-0.5-11.4,4.1-14.6C17.9-60.4,20.4-61,22.8-61z
			"/>
		<path id="middle-thing_2_" class="st2" d="M30.8-46.4c6.2,6.7,7.9,15.7,8.4,24.4c0.3,4.9,0,10.1,1.4,14.8
			c1.2,4.1,4.1,7.2,7.1,10.1C53.8,9,60.5,15,62.3,23.6c1,5,0.3,10.2,1.8,15.2c1.3,4.5,3.6,9,6.3,12.8c2.2,3.1,5.1,5.4,7.6,8.3
			c0.7,0.9,1.8,2.2,1.5,3.4c-0.4,1.4-2.2,1.9-3.5,1.7c-3-0.5-5.6-3.4-7.6-5.6c-2.9-3.1-5.4-6.4-7.4-10.2c-2.2-4.1-4-8.5-4.8-13.2
			c-0.8-4.8-0.4-9.9-2.2-14.5C50.8,13.7,43.4,9.1,38,3.1c-6.7-7.6-5.7-17-5-26.3c0.4-5.1,0.8-10.9-1.8-15.6c-1-1.8-3.2-3.4-3.6-5.5
			C27.2-46.1,29.3-48,30.8-46.4z"/>
	</g>
	<path id="Base" class="st3" d="M37.5,120c0,38.1,6.2,58,39,58s39-19.9,39-58H37.5z"/>
</g>
<g id="Table" transform="translate(135.000000, 353.000000)">
	<g id="Lamp_3_" transform="translate(23.000000, 0.000000)">
		<path id="Lamp-Base_1_" class="st2" d="M32.5,83h34c1.1,0,2,0.9,2,2v5c0,1.1-0.9,2-2,2h-34c-1.1,0-2-0.9-2-2v-5
			C30.5,83.9,31.4,83,32.5,83z"/>
		<path id="Lamp-Body" class="st0" d="M40.5,54c4.3-13.9,6.7-28.6,7.2-44h2.8h1.8c0.5,15.4,2.9,30.1,7.2,44H66
			c8.6,0,15.5,6.9,15.5,15.5S74.6,85,66,85H33c-8.6,0-15.5-6.9-15.5-15.5S24.4,54,33,54H40.5z"/>
		<path id="Shade" class="st1" d="M14.1-59.3C25.6-60.4,37-61,48.5-61s22.9,0.6,34.4,1.7l4.6,79.5c-13,1.2-26,1.9-39,1.9
			s-26-0.6-39-1.9L14.1-59.3z"/>
	</g>
	<path class="st4" d="M30.5,92h83h21v104h-21v-82h-83v82h-21V92H30.5z"/>
</g>
</svg>
