<?xml version="1.0" encoding="utf-8"?>
<!-- Generator: Adobe Illustrator 22.1.0, SVG Export Plug-In . SVG Version: 6.00 Build 0)  -->
<svg version="1.1" id="Слой_1" xmlns="http://www.w3.org/2000/svg" xmlns:xlink="http://www.w3.org/1999/xlink" x="0px" y="0px"
	 viewBox="0 0 740 680" style="enable-background:new 0 0 740 680;" xml:space="preserve">
<style type="text/css">
	.st0{fill:#C1DEE2;}
	.st1{fill:#89C5CC;}
	.st2{fill:#69A1AC;}
	.st3{fill:#FFFFFF;}
	.st4{fill:#C5CFD6;}
</style>
<title>Scene/Home</title>
<desc>Created with Sketch.</desc>
<g id="Plant" transform="translate(537.000000, 328.000000)">
	<g id="Succulents" transform="translate(13.000000, 0.000000)">
		<path id="Thi-Succs_x21_" class="st0" d="M3.4,0.2c8.8,21,23.8,35.6,31.8,57.4c4.7,12.9,6.7,27,6.8,41.4
			c0.1,7.8-0.1,15.7-0.1,23.5c0,7.6-0.2,15.2-0.9,22.8c-0.7,7.6-1.4,15.2-1.7,22.8c-0.3,6-0.4,12.9-2.4,18.4c-1.6,4.3-5.7,5-6.8-0.3
			c-0.6-2.9-0.5-6.2-0.5-9.2c0.1-3.9,0.3-7.7,0.4-11.6c0.5-15.5-0.1-30.9,0.2-46.4c0.3-15.1,2.2-30.2,0.1-45.2
			C28.6,61.5,24,50.8,18.9,40.6C13.9,30.8,8.4,21.2,5.1,10C4.1,6.8,3.4,3.5,3,0C3.2,0,3.3,0,3.4,0.2z"/>
		<path id="Thi-Succs_x21__1_" class="st1" d="M1,41.6c1.7,1.3,2.7,3.1,3.9,4.9c1.5,2.3,3.2,4.3,4.7,6.6c3.1,4.7,5.8,9.7,8.6,14.7
			c5.3,9.3,9.3,19.3,11.3,30.1c2.1,11.2,2.6,22.8,3.5,34.1c0.9,12,1.8,24.2,2,36.3c0.1,5.4,0.3,11.2-0.3,16.5
			c-0.4,3.3-1.9,6.2-5.3,6.2c-7.2-0.1-10.6-8.1-12.1-14.6c-2.1-9.7-2.5-20-2.2-29.9c0.4-11.9,2.5-23.7,3.4-35.6
			c0.9-12.6,0.4-25-3.9-36.8c-2.2-6-4.7-11.8-7-17.8c-1-2.5-1.8-5.1-3.1-7.5C3,46.2,1.1,43.8,0,41C0.3,41.2,0.6,41.4,1,41.6z"/>
		<path id="Thi-Succs_x21__2_" class="st0" d="M84.3,16.5c0.2-0.2,0.4-0.3,0.7-0.5c-0.6,2.7-1.8,4.9-2.7,7.3
			c-0.8,2.2-1.2,4.7-1.7,7.1c-1.3,5.7-2.7,11.2-3.9,17c-2.3,11.3-1.9,23.6-0.4,36.1c1.5,11.9,3.8,23.7,4.8,35.6
			c0.9,9.9,1.3,20,0.4,29.4c-0.6,6.4-2.5,14-7.8,13.4c-2.5-0.3-3.8-3.3-4.3-6.6c-0.8-5.4-1-11.1-1.3-16.4c-0.7-12-0.9-23.9-1-35.8
			c-0.1-11.2-0.5-22.6,0.2-33.5c0.7-10.5,3-20,6.2-28.8c1.7-4.6,3.3-9.3,5.2-13.7c0.9-2.1,2-4,2.9-6.1
			C82.6,19.3,83.1,17.6,84.3,16.5z"/>
		<path id="Thi-Succs_x21__3_" class="st0" d="M3.2,76.3c1-1.6,3.1,3.7,3.4,4.4c-0.1-0.3-0.3-0.7-0.4-1c1.9,3.2,3.6,6.4,4.7,10.1
			c1.1,3.6,2,7.2,3,10.9c1.9,6.8,4.3,13.4,6,20.2c1.7,6.7,2.1,13.2,1.7,20.1c-0.4,7.2-0.7,14.4-0.2,21.6c0.2,3.4,1.3,6.6,2.1,9.9
			c0.8,3.3,1.4,6.6,2.3,9.9c0.2-0.4,0.2,1,0.2,1.1c0,0.8-0.1,1.5-0.4,2.3c-0.7,2-1.9,3.7-3.8,4.2c-3.5,1-6.7-2.2-7.8-5.5
			c-1.6-4.8-2.5-10-3.2-15c-0.7-4.6-0.9-9.2-0.7-13.9c0.4-9.2,2.1-18.2,2.5-27.4c0.5-10-1.5-19.4-3.1-29.1
			c-0.8-4.7-1.6-9.3-3.1-13.8c-0.6-1.8-1.4-3.4-2.3-5.1C3.6,79.1,2.6,77.4,3.2,76.3z"/>
		<path id="Thi-Succs_x21__4_" class="st2" d="M31.3,60.7c-0.4,11.4-1.1,22.8-2.6,34.1c-1.6,11.6-3.3,23.1-4.8,34.6
			c-1.5,11.3-3,22.7-2.8,34.1c0.2,8.4-1.2,22.6,8.1,26.8c9.5,4.2,11.5-13.7,12.1-19.7c1.2-11.4,0.8-22.9,0.2-34.3
			c-0.6-11.7-1.6-23.4-2.8-35.1c-1.4-13-2.4-26-3.3-39c-0.4-6.4-0.5-12.9-0.4-19.3c0.1-6.1-0.1-12.2-2.3-18
			c-0.1,0.1-0.2,0.2-0.3,0.2"/>
		<path id="Thi-Succs_x21__5_" class="st1" d="M80.1,97c-1.7,2.5-3.4,4.9-5,7.6c-2.9,4.7-5.5,9.9-6.3,16.6
			c-1.6,14.1-0.3,29.2,0,43.7c0.1,3-0.3,5.8,0.9,8.6c1.1,2.6,3,4.5,4.9,4.5c4,0,3.4-9.9,3.4-14.3c0-7.6-0.8-15.3-0.8-22.9
			c0.1-7.5,0.5-15.1,1.6-22.3c1.1-7.3,2.7-14.2,4.9-20.7c0.3-0.9,2.4-7.9,0.4-6.7"/>
		<path id="Thi-Succs_x21__6_" class="st2" d="M62.3,22c-2.7,0-2.6,13.2-2.7,14.9c-0.3,6.1-0.2,12.3-0.4,18.4
			c-0.4,13.4-0.9,26.9-2.9,40.1c-1.1,7.1-2.3,14.2-3.7,21.3c-1.4,7.1-3.2,14.2-4.1,21.3c-0.9,6.9-0.4,13.9-0.3,20.9
			c0.1,7,0.3,14,1.2,20.9c0.2,1.7,0.5,3.4,0.8,5.1c0.2,1.4,0.1,3.2,0.5,4.5c0.6,2.2,3.4,2.9,5.2,2.5c5-0.9,8.2-7.2,9.9-11.8
			c2.2-5.8,3.3-12.2,4.5-18.4c1.3-7,2-14.1,2.4-21.2c0.7-14.4-0.2-28.9-1.2-43.3c-0.6-8-1.2-16-2.3-23.9c-1-7.9-2.3-15.8-3.2-23.8
			c-0.6-5.8-1.2-11.6-1.6-17.4C64.4,30.9,64.3,22,62.3,22"/>
		<path id="Thi-Succs_x21__7_" class="st1" d="M58.9,118.1c-0.4-13.9-6-74.9-7.3-91.7C51.3,22.3,48.3,4.8,47.9,0
			c-1.1,1.3-1,22.3-1,27.1c0,4.8-0.6,9.5-0.9,14.2c-0.3,4.8-7.5,67.3-8.4,71.9c-1.8,9.2-3.1,18.7-4,28.2c-0.9,9.2-2.4,18.9-1.1,28.2
			c0.3,2.1,0.7,4.2,1.5,6.2c0.8,2.1,1.3,4.1,2,6.3c1,3.6,2.9,6.7,5.7,8.2c5.8,3,9-3.8,10.6-9.8c2.5-9.5,4.2-19.2,4.9-29.1
			C58,140.3,59.3,129.3,58.9,118.1"/>
	</g>
	<g id="Planter" transform="translate(0.000000, 159.000000)">
		<path id="Vase" class="st3" d="M12,0h87c1.1,0,2,0.9,2,2v87c0,1.1-0.9,2-2,2H12c-1.1,0-2-0.9-2-2V2C10,0.9,10.9,0,12,0z"/>
		<path id="Leg" class="st4" d="M2,10h6c1.1,0,2,0.9,2,2v109c0,1.1-0.9,2-2,2H2c-1.1,0-2-0.9-2-2V12C0,10.9,0.9,10,2,10z"/>
		<path id="Leg_1_" class="st4" d="M52,10h6c1.1,0,2,0.9,2,2v109c0,1.1-0.9,2-2,2h-6c-1.1,0-2-0.9-2-2V12C50,10.9,50.9,10,52,10z"/>
		<path id="Leg_2_" class="st4" d="M103,10h6c1.1,0,2,0.9,2,2v109c0,1.1-0.9,2-2,2h-6c-1.1,0-2-0.9-2-2V12C101,10.9,101.9,10,103,10
			z"/>
	</g>
</g>
</svg>
