<?xml version="1.0" encoding="utf-8"?>
<!-- Generator: Adobe Illustrator 22.1.0, SVG Export Plug-In . SVG Version: 6.00 Build 0)  -->
<svg version="1.1" id="Слой_1" xmlns="http://www.w3.org/2000/svg" xmlns:xlink="http://www.w3.org/1999/xlink" x="0px" y="0px"
	 viewBox="0 0 740 680" style="enable-background:new 0 0 740 680;" xml:space="preserve">
<style type="text/css">
	.st0{fill:none;stroke:#CBCBCB;stroke-width:8;}
	.st1{fill:#AFB9C5;}
	.st2{fill:#C5CFD6;}
	.st3{fill:#F2F2F2;}
</style>
<title>Scene/Home</title>
<desc>Created with Sketch.</desc>
<g id="Lamp_2_" transform="translate(524.000000, 198.000000)">
	<path id="Body" class="st0" d="M69.5,71.2l18.6-18.6c3.1-3.1,8.2-3.1,11.3,0c0,0,0,0,0,0l49.4,49.5c3,3,4.7,7.1,4.7,11.3V441"/>
	<path id="Lamp-Base" class="st1" d="M126.5,440h53c1.7,0,3,1.3,3,3v1c0,1.7-1.3,3-3,3h-53c-1.7,0-3-1.3-3-3v-1
		C123.5,441.3,124.8,440,126.5,440z"/>
	
		<g id="Lamp-Top" transform="translate(48.083261, 49.083261) rotate(45.000000) translate(-48.083261, -49.083261) translate(14.583261, 14.583261)">
		<path id="Lamp" class="st2" d="M64.5,19.4L64.5,19.4c18.2,0,33,14.8,33,33v28h-66v-28C31.5,34.2,46.3,19.4,64.5,19.4z"/>
		
			<ellipse id="Lamp_1_" transform="matrix(2.535182e-06 1 -1 2.535182e-06 144.1516 14.8012)" class="st3" cx="64.7" cy="79.5" rx="6.5" ry="33"/>
	</g>
</g>
</svg>
