<?xml version="1.0" encoding="utf-8"?>
<!-- Generator: Adobe Illustrator 22.1.0, SVG Export Plug-In . SVG Version: 6.00 Build 0)  -->
<svg version="1.1" id="Слой_1" xmlns="http://www.w3.org/2000/svg" xmlns:xlink="http://www.w3.org/1999/xlink" x="0px" y="0px"
	 viewBox="0 0 380 400" style="enable-background:new 0 0 380 400;" xml:space="preserve">
<style type="text/css">
	.st0{fill:#B28B67;}
	.st1{fill:#191847;}
	.st2{fill:#C5CFD6;}
	.st3{fill:#1F28CF;}
	.st4{fill:#2B44FF;}
	.st5{fill:#E4E4E4;}
	.st6{fill:#DDE3E9;}
	.st7{fill:#2F3676;}
	.st8{fill-opacity:0.1;}
	.st9{fill:#FFFFFF;fill-opacity:0.2;}
</style>
<title>humaaans/sitting-4</title>
<desc>Created with Sketch.</desc>
<g id="Head_x2F_Front_x2F_Curly" transform="translate(82.000000, 0.000000)">
	<g id="Head" transform="translate(54.000000, 31.000000)">
		<path class="st0" d="M59.1,58.9c5.1-4.9,8.9-11.2,9.1-18.6c0.7-21.4-29.4-19.8-36.3-9.6s-9,37.5-1.7,40.2
			c2.9,1.1,9.4-0.2,16.3-3.4l-7,28.2L63.4,98L59.1,58.9z"/>
	</g>
	<path id="hair" class="st1" d="M76.8,45.7c0.7-1.7,2.2-3,4-3.3c0.4-0.1,0.9-0.1,1.3,0c0.2,0,0.2,0.1,0.3,0c0.1-0.1,0.1-0.3,0.1-0.4
		c0.1-0.3,0.2-0.6,0.4-0.9c0.5-1,1.2-1.8,2-2.4c1.6-1.2,3.6-2,5.6-2c1.1,0,2.2,0.3,3.2,0.8c0.5,0.2,1,0.5,1.5,0.8
		c0.1,0.1,0.6,0.5,0.8,0.5c0.2,0,0.6-0.4,0.7-0.5c1.8-1.1,4-1.4,6.1-1.2c2.4,0.3,4.7,0.6,6.5,2.3c0.4,0.4,0.8,0.7,1.1,1.1
		c0.2,0.2,0.4,0.4,0.5,0.6c0.1,0.1,0.2,0.3,0.3,0.4c0.2,0.2,0.1,0.3,0.4,0.2c1-0.5,2.1-0.6,3.2-0.4c0.7,0.1,1.3,0.4,1.9,0.7
		c0.2,0.1,0.6,0.5,0.9,0.5c0.2,0,0.7-0.3,1-0.3c1.3-0.3,2.6-0.3,3.9,0c1.3,0.4,2.6,1,3.6,1.9c0.5,0.4,0.9,0.8,1.3,1.4
		c0.1,0.2,0.3,0.5,0.4,0.7c0.1,0.1,0.3,0.3,0.3,0.4c0-0.1,1.5-0.5,1.7-0.5c0.8-0.1,1.5,0,2.2,0.3c1.3,0.6,2.4,1.7,3.3,2.9
		c0.4,0.6,0.8,1.2,1.1,1.9c0.1,0.3,0.3,0.6,0.4,1c0.1,0.2,0.1,0.4,0.2,0.5c0.1,0.2,0.2,0.2,0.4,0.3c1.1,0.5,2,1.3,2.7,2.3
		c0.7,1,1.1,2.2,1.2,3.4c0,0.1,0,0.4,0,0.4c0.1,0.1,0.3,0.1,0.4,0.1c0.3,0.1,0.6,0.1,0.9,0.2c0.5,0.2,1,0.4,1.5,0.7
		c1.8,1.1,3,3.1,3.5,5.2c0.5,2.2,0.2,4.6-0.8,6.6c-0.2,0.3-0.4,0.6-0.6,0.9c-0.1,0.2-0.2,0.2-0.1,0.4c0.1,0.2,0.2,0.5,0.3,0.7
		c0.3,0.7,0.4,1.5,0.5,2.3c0.1,1.3,0.1,2.6-0.3,3.8c-0.2,0.6-0.4,1.1-0.8,1.6c-0.2,0.2-0.4,0.5-0.6,0.7c-0.1,0.1-0.2,0.2-0.4,0.3
		c-0.1,0.1-0.2,0.1-0.2,0.2c-0.2,0.2-0.2,0-0.1,0.3c0.1,0.4,0.2,0.7,0.3,1.1c0.1,0.4,0.2,0.7,0.3,1.1c0.2,0.8,0.3,1.5,0.3,2.3
		c0.1,1.5-0.1,3-0.9,4.3c-0.4,0.5-0.8,1-1.4,1.3c-0.3,0.2-0.6,0.3-0.9,0.4c-0.2,0.1-0.3,0.1-0.4,0.2c-0.1,0.1,0,0.5,0,0.6
		c0.1,1.5,0,3.1-0.6,4.5c-0.5,1.3-1.6,2.4-2.8,3c-2.4,1.3-5.4,0.9-7.7-0.6c-0.6-0.4-1.1-0.8-1.6-1.3c-1.5,1.6-4.2,1.3-6,0.6
		c-2.3-0.9-4.1-2.7-4.9-5c-1.7,1.7-4.8,0.8-5.6-1.3c-0.2-0.5-0.3-1.1-0.3-1.6c0-0.3,0-0.6,0-0.9c0-0.4-0.2-0.7-0.3-1.1
		c-0.2-0.7-0.3-1.4-0.2-2.2c0-0.4,0.1-0.8,0.2-1.1c0.1-0.3,0-0.7,0-1c0.6,0.2,1.4,0.1,2,0c0.6-0.1,1.2-0.5,1.6-0.9
		c1-0.9,1.7-2.1,2.2-3.3c1.1-2.7,1.1-6.1-1.5-7.9c-1.2-0.8-5.1-1.2-6.7-1c-1.7,0.2-3.9,3.6-4,3.9c-0.1,0.2-0.1,0.5-0.3,0.6
		c-0.5,0.3-1.1-0.3-1.4-0.6c-0.5-0.5-0.8-1.2-1.1-1.8c-0.6-1.4-1-2.9-1.3-4.4c-0.2-1.2-0.3-2.3-0.6-3.5c-0.3-1.1-0.9-2.2-1.8-2.9
		c-1-0.8-2.3-1.3-3.4-1.8c-1.2-0.5-2.3-1.2-3.1-2.2c-0.2-0.2-0.4-0.4-0.5-0.7c-0.1-0.2-0.2-0.6-0.4-0.7c-0.3-0.2-0.8,0.2-1.1,0.4
		c-1.4,0.7-2.6,1.8-3.6,2.9c-1,1.2-1.9,2.3-2.6,3.7c-0.5,1-0.9,2.3-1.8,3.1c-0.4,0.3-2.9,0.3-3.7-0.1c-0.8-0.4-1.6-1.4-1.8-2
		c-0.2-0.6-0.2-1.2,0-1.8c0.1-0.4,0.3-0.7,0.4-1c0.1-0.3,0.2-0.6,0.4-0.8c0.3-0.5,0.8-0.8,1.4-0.9c-0.5-0.6-0.9-1.3-1.2-2.1
		c-0.3-0.8-0.5-1.7-0.5-2.6c0-0.7,0.2-1.4,0.6-1.9c0.4-0.6,1.2-0.9,1.8-1.2c-0.8-0.8-1.5-1.7-2-2.7C76.5,50.2,76,47.8,76.8,45.7z"/>
</g>
<g id="Bottom_x2F_Sitting_x2F_Sweat-Pants" transform="translate(0.000000, 187.000000)">
	<g id="Objects_x2F_Seat_x2F_Cube-2" transform="translate(10.000000, 42.000000)">
		<path id="Seat" class="st2" d="M261,24H146c-8.8,0-16,7.2-16,16v92c0,8.8,7.2,16,16,16h115c8.8,0,16-7.2,16-16V40
			C277,31.2,269.8,24,261,24z M245,52c2.2,0,4,1.8,4,4v60c0,2.2-1.8,4-4,4h-83c-2.2,0-4-1.8-4-4V56c0-2.2,1.8-4,4-4H245z"/>
	</g>
	<path id="Skin" class="st0" d="M68.5,186.7c12.8-28.4,22.1-53.1,25.8-66.1c6.4-22.3,11.2-41.9,12.4-49.3
		c2.9-17.5-22.5-18.5-25.8-9.8C75.8,74.7,67,117.9,56.3,183.1L68.5,186.7z M217.1,97.7c-11.8-4.6-52.9-19.2-72.8-23.3
		c-5.7-1.2-11.2-2.3-16.4-3.3c-15.5-3-23.5,24.9-8.6,27.1c37.1,5.3,89.6,10.8,94.1,11.5C219.7,110.5,224.5,100.6,217.1,97.7z"/>
	<path id="Leg-Back" class="st3" d="M118.4,63.4L182,31v-7h-7.6c-61.5,15.7-93,25.7-94.3,30.1c0,0,0,0.1,0,0.1c0,0-0.1,0.1-0.1,0.1
		C67.8,71.2,60.5,153,58.1,159.2l23.4,3.5c8.9-33.1,37.5-56.2,36.8-95.9C118.4,65.6,118.5,64.5,118.4,63.4z"/>
	<path id="Leg-Front" class="st4" d="M176.7,82.6c5.8-1.2,11.2-2.2,15.8-3c29.6-5.2,38.2-21,33.1-55.6h-54.6
		c-8.9,2.6-55.2,22-79.3,32.3c-15.9,6.8-10.9,31.5-1.9,37.9c0,0.4,0.2,0.7,0.5,0.8c48.5,20.1,86.8,9.5,99.6,12.9l5.9-18.7
		L176.7,82.6z"/>
	
		<g id="Accessories_x2F_Shoe_x2F_Flat-Sneaker" transform="translate(143.959294, 93.331820) rotate(64.000000) translate(-143.959294, -93.331820) translate(113.459294, 73.331820)">
		<path id="shoe" class="st5" d="M62-41.5c1.7-2.7,3.1-4.5,4.2-5.4c1.4-1.1,3.7-2.5,6.8-4.2c1.3,1.6,12.9,16.5,34.7,44.4
			c-2.9,4.1-5.5,5.1-7.7,2.8c-2.2-2.3-4.1-4.1-5.7-5.6L69-22.9c-0.5-0.3-0.7-0.9-0.4-1.4c0,0,0,0,0,0l2.2-3.8
			c-0.7-3.1-1.7-5.4-2.8-6.9c-0.9-1.2-2.6-2.4-5.2-3.7l0,0c-1-0.5-1.4-1.7-0.9-2.7C62-41.5,62-41.5,62-41.5z"/>
	</g>
	<g id="Accessories_x2F_Shoe_x2F_Flat-Sneaker_1_" transform="translate(263.000000, 132.000000)">
		<path id="shoe_1_" class="st5" d="M-188.7,49.4c1.1,3,1.7,5.2,1.7,6.7c0,1.8-0.3,4.4-0.9,7.9c-2.1,0-20.9,0-56.4,0
			c-1.5-4.8-0.6-7.5,2.5-7.8c3.2-0.4,5.8-0.7,7.9-1l26.2-11.7c0.5-0.2,1.1,0,1.3,0.5c0,0,0,0,0,0l1.7,4.1c2.9,1.4,5.3,2,7.1,2
			c1.5,0,3.5-0.6,6.2-1.8l0,0c1-0.5,2.2,0,2.7,1C-188.7,49.3-188.7,49.4-188.7,49.4z"/>
	</g>
</g>
<g id="Body_x2F_Jacket" transform="translate(22.000000, 82.000000)">
	<path id="Skin_1_" class="st0" d="M102,113.1l-28.3,27.6c-8.2,3.5-15,7.4-20.3,11.6c-1.2,1.4-2.5,4.2,3.1,2.9
		c5.6-1.2,11.5-2.3,12.5-0.5c1,1.8-2,4.6-0.1,7c1.3,1.6,5.6-3.4,13-15.1l29.5-17.4L102,113.1z M227.7,117l-20.9,0.1
		c12.9,41.7,19.9,63.8,20.9,66.3c2.3,5.7-2.6,14.5-4.7,19.2c6.8,3.1,6.1-8.3,14.7-4.2c7.9,3.7,13.8,10.3,22.9,4.7
		c1.1-0.7,2.3-3.3-0.6-5.3c-7.4-5-18-13.9-19.4-16.8C238.6,176.9,234.3,155.6,227.7,117z"/>
	<path id="Coat-Back" class="st1" d="M168.3,29.3l-8.6-1.5c-14.9,37.2-40.9,71-78,101.4l28,34.1C146.8,120,169.7,75.4,168.3,29.3z"
		/>
	<path id="Shirt" class="st6" d="M206,138h-77c17.8-43.4,26.8-80.2,26.8-110.5L179,24C197.2,53.4,202.4,89.5,206,138z"/>
	<path id="Coat-Front" class="st7" d="M179.5,24C179.5,24,179.5,24,179.5,24l-1.5,0c-1.8,0.1-4.6,0.2-8.3,0.3l-5.6,16
		c-0.6,19.6-4.1,59-10.4,118.2h50.5c-0.1,4.1-0.4,8.2-0.7,12.4H241C235.4,107.7,214.9,58.7,179.5,24C179.5,24,179.5,24,179.5,24z"/>
	<path id="Shade" class="st8" d="M200.8,106.2c-1.4,25.5-5,43.1-10.8,52.8h14.1C204.7,140.6,203.6,123.1,200.8,106.2z"/>
	<polygon id="Light" class="st9" points="192.9,128 168,116.4 168,128 	"/>
</g>
</svg>
