<?xml version="1.0" encoding="utf-8"?>
<!-- Generator: Adobe Illustrator 22.1.0, SVG Export Plug-In . SVG Version: 6.00 Build 0)  -->
<svg version="1.1" id="Слой_1" xmlns="http://www.w3.org/2000/svg" xmlns:xlink="http://www.w3.org/1999/xlink" x="0px" y="0px"
	 viewBox="0 0 380 480" style="enable-background:new 0 0 380 480;" xml:space="preserve">
<style type="text/css">
	.st0{fill:#AFB9C5;}
	.st1{fill:#B28B67;}
	.st2{fill:#2F3676;}
	.st3{fill:#997659;}
	.st4{fill:#E4E4E4;}
	.st5{fill:#5C63AB;}
	.st6{fill:#191847;}
	.st7{fill:#E87613;}
	.st8{fill:#DDE3E9;}
	.st9{fill:#FF9B21;}
	.st10{fill-opacity:0.1;}
</style>
<title>humaaans/standing-6</title>
<desc>Created with Sketch.</desc>
<path id="Label_22_" class="st0" d="M27.2,457.6h60c2.3,0,4.2,1.3,4.2,3v0.3c0,1.7-1.9,3-4.2,3h-60c-2.3,0-4.2-1.3-4.2-3v-0.3
	C23,459,24.8,457.6,27.2,457.6z"/>
<path id="Label_1_" class="st0" d="M87.4,457.6h60c2.3,0,4.2,1.3,4.2,3v0.3c0,1.7-1.9,3-4.2,3h-60c-2.3,0-4.2-1.3-4.2-3v-0.3
	C83.3,459,85.1,457.6,87.4,457.6z"/>
<path id="Label_2_" class="st0" d="M149,457.6h60c2.3,0,4.2,1.3,4.2,3v0.3c0,1.7-1.9,3-4.2,3h-60c-2.3,0-4.2-1.3-4.2-3v-0.3
	C144.8,459,146.7,457.6,149,457.6z"/>
<path id="Label_3_" class="st0" d="M213.7,420.8v40.2c0,1.6-1.3,2.8-3,2.8h-0.3c-1.7,0-3-1.3-3-2.8v-40.2c0-1.6,1.3-2.8,3-2.8h0.3
	C212.3,418,213.7,419.3,213.7,420.8z"/>
<path id="Label_4_" class="st0" d="M250.4,424.3h-40.2c-1.6,0-2.8-1.3-2.8-3V421c0-1.7,1.3-3,2.8-3h40.2c1.6,0,2.8,1.3,2.8,3v0.3
	C253.2,423,252,424.3,250.4,424.3z"/>
<path id="Label_6_" class="st0" d="M288.2,424.3H248c-1.6,0-2.8-1.3-2.8-3V421c0-1.7,1.3-3,2.8-3h40.2c1.6,0,2.8,1.3,2.8,3v0.3
	C291,423,289.8,424.3,288.2,424.3z"/>
<path id="Label_7_" class="st0" d="M285.2,420.8v-40.2c0-1.6,1.3-2.8,3-2.8h0.3c1.7,0,3,1.3,3,2.8v40.2c0,1.6-1.3,2.8-3,2.8h-0.3
	C286.5,423.6,285.2,422.3,285.2,420.8z"/>
<path id="Label_8_" class="st0" d="M288,377.7h40.2c1.6,0,2.8,1.3,2.8,3v0.3c0,1.7-1.3,3-2.8,3H288c-1.6,0-2.8-1.3-2.8-3v-0.3
	C285.2,379.1,286.4,377.7,288,377.7z"/>
<path id="Label_9_" class="st0" d="M327.4,377.7h40.2c1.6,0,2.8,1.3,2.8,3v0.3c0,1.7-1.3,3-2.8,3h-40.2c-1.6,0-2.8-1.3-2.8-3v-0.3
	C324.6,379.1,325.8,377.7,327.4,377.7z"/>
<g>
	<g id="Bottom_x2F_Standing_x2F_Sprint" transform="translate(0.000000, 215.435876)">
		<path id="Leg" class="st1" d="M127-20.1c2,26.6,127.8,104.7,128.5,106.9c0.3,1-12.7,31.8-39.2,92.5l11,4.3
			c40.5-64.2,59.8-99.8,57.7-106.6c-3-9.8-35.5-42-97.6-96.7L127-20.1z"/>
		<path id="Pant" class="st2" d="M219.2,165.6l18,6.5c37.9-42.6,52.7-77.7,50-95.6c-1.8-11.9-34.2-44.1-97.3-96.6l-64.2,0
			C127.9,41.5,244.5,87.1,246,89.7C247.6,92.3,232.2,118,219.2,165.6z"/>
		<polygon id="Leg_1_" class="st3" points="141.4,-20.1 85.4,114 30.3,227.3 43.3,227.3 185.5,-20.1 		"/>
		<g id="Accessories_x2F_Shoe_x2F_Flat-Sneaker_1_" transform="translate(25.997373, 214.729269)">
			<path id="shoe_1_" class="st4" d="M3.5,7.4c-1.2,3.2-1.8,5.7-1.8,7.3c0,2,0.3,4.8,1,8.6c2.3,0,22.6,0,61.1,0
				c1.6-5.2,0.7-8.1-2.7-8.5s-6.3-0.8-8.5-1.1L24.1,0.9c-0.5-0.2-1.2,0-1.4,0.5c0,0,0,0,0,0l-1.8,4.4c-3.2,1.5-5.7,2.2-7.7,2.2
				c-1.6,0-3.8-0.6-6.7-1.9l0,0c-1.1-0.5-2.4,0-2.9,1.1C3.5,7.3,3.5,7.4,3.5,7.4z"/>
		</g>
		<g id="Accessories_x2F_Shoe_x2F_Flat-Sneaker_2_" transform="translate(25.997373, 214.729269)">
			<path id="shoe_2_" class="st4" d="M185.3-35.8c-1.2,3.2-1.8,5.7-1.8,7.3c0,2,0.3,4.8,1,8.6c2.3,0,22.6,0,61.1,0
				c1.6-5.2,0.7-8.1-2.7-8.5c-3.4-0.4-6.3-0.8-8.5-1.1l-28.4-12.7c-0.5-0.2-1.2,0-1.4,0.5c0,0,0,0,0,0l-1.8,4.4
				c-3.2,1.5-5.7,2.2-7.7,2.2c-1.6,0-3.8-0.6-6.7-1.9l0,0c-1.1-0.5-2.4,0-2.9,1.1C185.4-35.9,185.4-35.8,185.3-35.8z"/>
		</g>
		<path id="Pant_1_" class="st5" d="M35.2,203.7l28.9,5.4c22.3-32.7,115.8-166.8,126-229.2h-64.3C91.6,25,56.5,170.5,35.2,203.7z"/>
	</g>
	
		<g id="Head_x2F_Front_x2F_Wavy" transform="translate(170.300496, 72.834695) rotate(14.000000) translate(-170.300496, -72.834695) translate(96.650698, 16.603678)">
		<g id="Head" transform="translate(58.494090, 33.282773)">
			<path class="st1" d="M4.7,17.4c-5-5.8-8.4-12.9-7.8-20.9c1.6-23,33.9-17.9,40.2-6.3s5.5,41-2.6,43.1c-3.2,0.8-10.1-1.2-17.1-5.4
				l4.4,30.9l-26,0L4.7,17.4z"/>
		</g>
		<path id="hair" class="st6" d="M98,28.7c-0.3-1.5-0.9-3.2-1.4-4.6c-0.7-1.8-1.6-3.5-2.7-5c-2.1-2.9-4.5-5.6-7.2-7.8
			c-5-4-11.3-6.3-17.5-5.6C66,6,62.9,7.2,60.3,9.2c-2.3,1.8-4.6,4.4-7.6,4.6c-3.3,0.2-6.3-2.7-9-4.5c-3-2-6.2-3.5-9.7-4
			c-5.8-1-11.3,1-15.4,5.8c-4.3,5.1-7.4,12.5-4.6,19.2c0.5,1.2,1.2,2.3,2.2,3.2c0.9,0.8,2.2,1.6,2.6,2.9c0.4,1.4-0.8,3.1-1.2,4.3
			c-0.6,1.8-1.2,3.6-1,5.5c0.3,3.1,2.3,6.1,4.4,8.2c2.1,2.1,4.8,3.3,7.6,3.8c1.9,0.4,3.8,0.6,5.7,0.4c0.9-0.1,1.8-0.3,2.7-0.5
			c0.9-0.2,1.4,0,2.1,0.5c3.5,2.2,7.3,3.1,11.3,2.8c3.4-0.3,7.4-1.1,10.1-3.4c3.1-2.6,3-6.1,2.3-9.9c0.8,0.4,2.9,0.6,1.6-0.9
			c-0.5-0.6-1.5-0.8-2.1-1.2c-0.8-0.4-1.5-0.9-2.1-1.6c-2.4-2.7,0-8.2,3-9.1c4.4-1.3,5.4,4.9,8.6,6.5c1.8,0.9,3.7-0.3,5.1-1.6
			c1.8-1.7,3.1-4,4.1-6.3c0.9-1.9,1.7-3.9,2.6-5.8c0.4-0.9,1.9-3.4,1.1-4.4c3.2-0.6,6.7,0.7,9.4,2.4c1.1,0.7,2,1.5,2.6,2.7
			c0.1,0.3,0.4,1.1,0.8,1.1C98.3,29.8,98.1,29,98,28.7"/>
	</g>
	
		<g id="Body_x2F_Hoodie" transform="translate(161.626398, 206.585639) rotate(1.000000) translate(-161.626398, -206.585639) translate(22.991486, 105.477944)">
		<path id="Skin" class="st1" d="M206.9,79.3l34.6,25.2c9.4,2.5,17.2,5.6,23.5,9.4c1.5,1.3,3.3,4.1-2.9,3.6
			c-6.2-0.5-12.7-0.7-13.5,1.4c-0.8,2.1,2.9,4.6,1.2,7.4c-1.1,1.9-6.6-2.8-16.2-14.1l-34.2-14.1L206.9,79.3z M74.2,80.2l22.6,0.1
			c-14,44.9-21.5,68.7-22.6,71.5c-2.5,6.2,2.8,15.6,5.1,20.7c-7.4,3.3-6.6-8.9-15.9-4.6c-8.5,3.9-15,11.1-24.8,5
			c-1.2-0.7-2.5-3.5,0.7-5.7c8-5.4,19.5-15,21-18.1C62.4,144.8,67,121.8,74.2,80.2z"/>
		<path id="Coat-Back" class="st7" d="M138.6-14.4l9.4-1.6c34.8,29.9,49,87.3,91.6,117.7l-10.3,12.6
			C155.4,105.3,137.1,35.3,138.6-14.4z"/>
		<path id="Shirt" class="st8" d="M97.7,102.8c37.6,0,65.2,0,82.9,0c3.8,0,3.1-5.4,2.5-8.2c-6.3-31.7-31-65.9-31-111l-23.9-3.7
			C108.5,11.5,101.6,50.5,97.7,102.8z"/>
		<path id="Coat-Front" class="st9" d="M98.4,11c-3.5-1-6.2-3.3-8.2-6.9c-8.7-15.7-5.6-24.3,3.8-27.2s17.7,3,32.5,3
			c0.8,0,1.6,0.1,2.2,0.2l7.5,0.4c21.5,72.4,27.4,120.7,17.8,144.9l-65.2,0c-3.9,9-7.6,16.5-11.1,22.6H59.8
			C58.2,94.2,71,48.5,98.4,11z"/>
		<path id="Shade" class="st10" d="M102.9,88.2c2.1,17.1,5.4,29.5,10,37.2l-24.2,0C93.2,115,97.9,102.6,102.9,88.2z"/>
	</g>
</g>
</svg>
