<?xml version="1.0" encoding="utf-8"?>
<!-- Generator: Adobe Illustrator 22.1.0, SVG Export Plug-In . SVG Version: 6.00 Build 0)  -->
<svg version="1.1" id="Слой_1" xmlns="http://www.w3.org/2000/svg" xmlns:xlink="http://www.w3.org/1999/xlink" x="0px" y="0px"
	 viewBox="0 0 380 480" style="enable-background:new 0 0 380 480;" xml:space="preserve">
<style type="text/css">
	.st0{fill:#1F28CF;}
	.st1{fill:#2B44FF;}
	.st2{fill:#915B3C;}
	.st3{fill:#191847;}
	.st4{fill:#2026A2;}
	.st5{fill:#E4E4E4;}
</style>
<title>humaaans/standing-24</title>
<desc>Created with Sketch.</desc>
<polygon id="Leg_3_" class="st0" points="152,208.6 103.7,439.1 123.7,439.1 158.9,341.3 209,208.6 "/>
<path id="Leg_2_" class="st1" d="M153.8,208.6c12.3,43.6,36,116.5,40.8,124.4c3.1,5.3,35.5,27.8,97,67.4l10.3-17.6
	c-51.8-41.2-78.2-62.8-79-64.7c-1.3-2.8-0.9-64.1-1.4-109.7H153.8z"/>
<g>
	
		<g id="Head_x2F_Front_x2F_Wavy" transform="translate(128.159246, 70.924000) rotate(-15.000000) translate(-128.159246, -70.924000) translate(57.306980, 16.688000)">
		<g id="Head" transform="translate(56.316359, 32.329762)">
			<path class="st2" d="M81.2,64.6L58.4,54.3l16.2-25.6c-7.8,0.9-14.7,0-17.2-2c-6.3-5,4.8-31.4,14.9-39.2S112.8-12,105,9
				c-2.7,7.3-8.5,12.3-15.2,15.4L81.2,64.6z"/>
		</g>
		<path id="hair" class="st3" d="M124.4,23.5c-0.2,0.3-0.7,0.9-0.1,1.1c0.3,0.1,0.9-0.5,1.1-0.7c1-0.9,2.1-1.2,3.4-1.4
			c3.1-0.4,6.7-0.2,9.2,1.6c-1,0.6-0.8,3.4-0.8,4.4c0,2,0,4.1,0,6.1c0,2.5,0.2,5,1.1,7.2c0.7,1.7,1.8,3.5,3.8,3.4
			c3.4-0.2,6.7-5.3,10.1-2.3c2.3,2,2.2,7.8-1,9.2c-0.8,0.4-1.7,0.5-2.5,0.6c-0.7,0.1-1.6-0.1-2.3,0.2c-1.7,0.8,0.2,1.5,1.1,1.4
			c-2.2,3.1-3.6,6.2-1.9,9.7c1.5,3.2,4.6,5.4,7.5,7c3.4,1.9,7.1,2.6,11,2c0.9-0.1,1.4-0.1,2.1,0.4c0.7,0.5,1.3,1.1,2.1,1.5
			c1.6,0.9,3.4,1.5,5.2,1.9c2.7,0.6,5.5,0.6,8.2-0.4c2.7-1,5.6-2.9,7.1-5.5c0.9-1.6,1.2-3.4,1.3-5.3c0.1-1.3-0.2-3.3,0.7-4.3
			c0.8-1,2.4-1.2,3.4-1.6c1.2-0.4,2.2-1.1,3.2-1.9c5.1-4.8,5.4-12.6,3.6-18.8c-1.6-5.8-5.7-9.7-11.2-11.2c-3.3-0.9-6.7-0.8-10.1-0.2
			c-3,0.5-6.8,1.9-9.7,0.4c-2.6-1.4-3.5-4.6-4.9-7.1c-1.5-2.8-3.7-5-6.3-6.6c-5.2-3.1-11.6-3.6-17.6-2c-3.3,0.9-6.5,2.2-9.5,4
			c-1.6,0.9-3.1,2-4.4,3.4C126.4,21,125.2,22.2,124.4,23.5"/>
	</g>
	
		<g id="Body_x2F_Pointing-Forward" transform="translate(155.249818, 199.734499) rotate(-10.000000) translate(-155.249818, -199.734499) translate(21.880847, 102.214000)">
		<path id="Skin" class="st2" d="M132.3,24.5L112.7-5.3c-12.5-7.1-17.9-11.4-16.4-12.8c2.4-2.1,5.4,0.9,7.3-0.2s0.5-7.3-1.1-13
			c-1.6-5.7,1.4-4.5,2.9-3.4c4.7,5.3,9.1,12.1,13.1,20.5l30.2,28.1L132.3,24.5z M84.9,31.4c-5.4-6.5-10.8-11.3-16.1-14.3
			c-10.2-5.8-14-9.3-17.6-17.5c-1.9-4.4-2.5-12.3,0.8-14C54.2-15.6,62.9-4.9,67-2.9c4.2,2,2.8-9.4,4.8-7.7c3,0.8,4.5,5.6,4.6,14.4
			l13.3,12.4L84.9,31.4z"/>
		<path id="Sleeve" class="st4" d="M151.9,34.5C137,31.1,122.5,17,113.5,1.9l10.8-13.6c14.7,15.5,30.4,22.3,42.7,25.5
			C173.3,24.5,163.7,37.1,151.9,34.5z"/>
		<path id="Clothes" class="st0" d="M176-25.2l28,7.1c3.1,0.8,13.8,46.2,7.2,72.2c-6,23.8,12.3,44.5-8.6,78.7
			c-17.4-8.2-76.3-3.8-80.6-25.8c-2.1-10.7-0.8-21.6,2.6-32.5c-18.5-5.1-39.5-17-62.4-37.4c1.1-6.9,7.5-17.2,19.1-31
			c27.9,18.7,48.8,28.1,62.7,28.2C156,14.3,169.4-5.7,176-25.2z"/>
	</g>
</g>
<g id="Accessories_x2F_Shoe_x2F_Flat-Sneaker_1_" transform="translate(216.922274, 207.536214)">
	<path id="shoe_1_" class="st5" d="M-91.9,227c-0.5-1-1.7-1.5-2.8-1l0,0c-2.7,1.3-4.9,1.9-6.4,1.9c-1.9,0-4.4-0.7-7.4-2.1l-1.8-4.3
		c0,0,0,0,0,0c-0.2-0.5-0.9-0.8-1.4-0.5l-27.3,12.2c-2.2,0.3-4.9,0.7-8.2,1.1c-3.3,0.4-4.2,3.1-2.6,8.2c37,0,56.6,0,58.8,0
		c0.6-3.6,0.9-6.4,0.9-8.2c0-1.5-0.6-3.9-1.8-7C-91.8,227.1-91.8,227-91.9,227z"/>
</g>
<g id="Accessories_x2F_Shoe_x2F_Flat-Sneaker" transform="translate(25.550941, 163.734601) rotate(80.000000) translate(-25.550941, -163.734601) translate(-6.257373, 142.876690)">
	<path id="shoe" class="st5" d="M291.6-209.6c-0.2,1.1,0.5,2.2,1.6,2.4v0c2.9,0.6,5,1.3,6.3,2.2c1.5,1.1,3.1,3.1,4.8,6.1l-1.1,4.5
		c0,0,0,0,0,0c-0.1,0.6,0.2,1.1,0.8,1.2l29.3,6c2,1,4.4,2.3,7.3,3.9c2.9,1.6,5.2-0.1,6.9-5.1c-30.1-21.6-46-33-47.8-34.3
		c-2.6,2.6-4.5,4.6-5.6,6.1c-0.9,1.3-1.8,3.5-2.7,6.7C291.6-209.7,291.6-209.6,291.6-209.6z"/>
</g>
</svg>
