<?xml version="1.0" encoding="utf-8"?>
<!-- Generator: Adobe Illustrator 22.1.0, SVG Export Plug-In . SVG Version: 6.00 Build 0)  -->
<svg version="1.1" id="Слой_1" xmlns="http://www.w3.org/2000/svg" xmlns:xlink="http://www.w3.org/1999/xlink" x="0px" y="0px"
	 viewBox="0 0 380 480" style="enable-background:new 0 0 380 480;" xml:space="preserve">
<style type="text/css">
	.st0{fill:#B28B67;}
	.st1{fill:#191847;}
	.st2{fill:#2F3676;}
	.st3{fill:#DDE3E9;}
	.st4{fill-opacity:0.1;}
	.st5{fill:#FFFFFF;fill-opacity:0.2;}
</style>
<title>humaaans/standing-11</title>
<desc>Created with Sketch.</desc>
<g id="Head_x2F_Front_x2F_Short-Beard" transform="translate(82.000000, 0.000000)">
	<g id="Head" transform="translate(54.000000, 31.000000)">
		<path class="st0" d="M48.3,61.5c-4.6-5.4-7.7-12-7.2-19.5c1.5-21.4,31.3-16.7,37.1-5.9s5.1,38.2-2.4,40.1c-3,0.8-9.3-1.1-15.8-5
			L64,100H40L48.3,61.5z"/>
	</g>
	<path id="Hair" class="st1" d="M115.1,75.4c0.9,12.8,3.3,19.2,7.3,19.2c5.9,0,10.9-3.8,13.5-3.8c1.9,0,1.5,2.4,0.2,4.1
		c-1,1.4-6.1,2.8-6.1,5.1c0,2.2,4,0.5,4,1.8c0,2.2,0.7,6.3-3.1,6.3c-3.9,0-15-1.4-16.9-7.1c-1.2-3.7-2-11.4-2.4-23
		c-0.2,0-0.5,0-0.7,0c-3.3,0-6,2.7-6,6c0,1.7,0.7,3.2,1.8,4.3c-1.4,2-2.9,4-4.7,6.1c-6.7-4-11.7-15.8-5.1-27.1
		c1.8-5.5,5.9-8.5,10.7-9.9c3.9-1.6,8-1.8,11.4-0.8c6.7,0.6,12.7,2.6,14.5,3.9c0,6.4-1.2,8.3-11.8,8.1
		C119.2,69.9,117.2,72.3,115.1,75.4z"/>
</g>
<g id="Bottom_x2F_Standing_x2F_Skinny-Jeans" transform="translate(0.000000, 187.000000)">
	<polygon id="Leg" class="st1" points="168,27 204.3,154.2 230.7,248 250,248 221.9,27 	"/>
	<path id="Leg_1_" class="st2" d="M158.3,27c-0.8,65.6-3.7,101.3-4.6,107.3c-0.9,6-14.2,43.9-39.9,113.7h20
		c32.8-67,51.1-104.9,54.9-113.7c3.8-8.8,15.6-44.6,33.3-107.3H158.3z"/>
	<g id="Accessories_x2F_Shoe_x2F_Flat-Pointy" transform="translate(72.000000, 199.000000)">
		<path id="Shoe" class="st1" d="M40,67l1-21h21c10,7,23,12.7,39,17v4H63l-13-2v2H40z"/>
	</g>
	<g id="Accessories_x2F_Shoe_x2F_Flat-Pointy_1_" transform="translate(188.000000, 199.000000)">
		<path id="Shoe_1_" class="st1" d="M40,67l1-21h21c10,7,23,12.7,39,17v4H63l-13-2v2H40z"/>
	</g>
</g>
<g id="Body_x2F_Jacket" transform="translate(23.827876, 88.835214)">
	<path id="Skin_1_" class="st0" d="M238.9,115.5l30.7,29.9c8.9,3.8,16.2,8,21.9,12.6c1.3,1.5,2.7,4.5-3.4,3.2
		c-6-1.3-12.4-2.5-13.6-0.5c-1.1,2,2.2,5,0.1,7.5c-1.4,1.7-6.1-3.7-14.1-16.3l-31.9-18.8L238.9,115.5z M102.7,119.8l22.6,0.1
		c-14,45.1-21.5,69.1-22.6,71.8c-2.5,6.2,2.8,15.7,5.1,20.8c-7.4,3.3-6.6-8.9-15.9-4.6c-8.5,4-15,11.1-24.8,5.1
		c-1.2-0.7-2.5-3.6,0.7-5.7c8-5.5,19.5-15,21-18.2C90.8,184.7,95.5,161.6,102.7,119.8z"/>
	<path id="Coat-Back_1_" class="st1" d="M167,24.8l9.4-1.6c16.1,40.3,44.3,76.9,84.5,109.8l-30.4,36.9
		C190.3,123,165.5,74.6,167,24.8z"/>
	<path id="Shirt_1_" class="st3" d="M126.2,142.5h83.4c-19.3-47-29-86.9-29-119.7L155.5,19C135.7,50.8,130.1,90,126.2,142.5z"/>
	<path id="Coat-Front_1_" class="st2" d="M154.9,19C154.9,19,154.9,19,154.9,19l1.7,0c2,0.1,5,0.2,9,0.4l6.1,17.4
		c0.6,21.2,4.4,63.9,11.3,128.1h-54.7c0.1,4.4,0.4,8.9,0.7,13.4H88.3C94.4,109.6,116.6,56.6,154.9,19C154.9,19,154.9,19,154.9,19z"
		/>
	<path id="Shade" class="st4" d="M131.8,108.1c1.6,27.6,5.5,46.7,11.7,57.2h-15.3C127.6,145.4,128.8,126.3,131.8,108.1z"/>
	<polygon id="Light" class="st5" points="140.4,131.7 167.4,119.1 167.4,131.7 	"/>
</g>
</svg>
