<?xml version="1.0" encoding="utf-8"?>
<!-- Generator: Adobe Illustrator 22.1.0, SVG Export Plug-In . SVG Version: 6.00 Build 0)  -->
<svg version="1.1" id="Слой_1" xmlns="http://www.w3.org/2000/svg" xmlns:xlink="http://www.w3.org/1999/xlink" x="0px" y="0px"
	 viewBox="0 0 740 680" style="enable-background:new 0 0 740 680;" xml:space="preserve">
<style type="text/css">
	.st0{fill:#89C5CC;}
	.st1{fill:#DDE3E9;}
	.st2{fill:#C1DEE2;}
	.st3{fill:#69A1AC;}
	.st4{opacity:0.6;}
	.st5{fill:#F2F2F2;}
	.st6{fill:#FFFFFF;}
	.st7{fill:#C5CFD6;}
	.st8{fill:#AFB9C5;}
</style>
<title>Scene/Wireframe</title>
<desc>Created with Sketch.</desc>
<path id="Twisted-Leaf" class="st0" d="M717.8,195.3c-0.5-0.4-1.8-0.5-2.4-0.6c-2.4-0.5-5-0.7-7.5-0.7c-7.7,0-15.5,0.8-23.1,2.1
	c-4.8,0.8-10.6,3.6-15.4,2.1c-8.3-2.6-16.7-2.5-24.6,1.3c-7.2,3.4-12.7,10-15.9,17.1c-0.5,1.1-2.4,5-3,7.7c-0.2,0.5-0.5,1.1-0.7,1.6
	c-0.6,1.6-1.1,3.2-1.6,4.8c-0.2,0.7-0.7,2.2-0.1,2.5c-1,1.8-1.9,3.7-2.6,5.7c-2.1,5.7-4.4,11.9-5.2,17.8c-0.3,2.2-0.3,4.4,0,6.7
	c0.1,1.1,0.1,3.3,0.8,4.1c1.6,1.8,2.4-0.7,2.2-1.9c-1.4-9,1.3-17.5,4.4-25.9c2-5.5,5.3-10.5,9-15c3-3.7,6.2-6.6,10.3-9
	c5-3,10.4-5.4,15.7-7.8c3.5-1.6,7-3.1,10.6-4.5c0.8-0.3,2.1-1.1,2.9-1.1c1.9,0,4.5,1.4,6.4,1.9c6,1.7,12,3.9,18.2,4.7
	c4,0.6,7.7-0.1,11.4-1.4c0.4-0.1,1-0.5,1.8-1c2.7-1.1,5.3-2.4,7.6-4.3c1.3-1.1,2.5-2.5,3.6-3.8c0.3-0.4,0.5-0.8,0.5-1.3
	c0.2-0.1,0.4-0.3,0.4-0.5C721.8,195.3,719.4,195.2,717.8,195.3"/>
<path id="Fill-16" class="st1" d="M92.8,302.5c-1.5,1.2-3,2.5-4.4,3.8c-1.1,1-3,2.2-3.4,3.7c-0.4,1.6,0.9,3,1.9,4
	c5.4,5,11.5,8.4,19,8.9c11.6,0.9,21.6-2.1,31.6-7.9c7-4.1,11.7-10.1,12.7-18.3c8.4,3.5,16.5,8.3,23.4,14.2c3.4,2.9,6.3,6.1,9,9.7
	c1.7,2.3,3.4,4.6,5,7c0.7,1,1.4,2.9,2.5,3.5c1.3,0.7,2.9-0.4,2.8-1.9c-0.1-1.2-1.4-2.6-2-3.6c-1-1.6-2.1-3.3-3.1-4.9
	c-1.8-2.6-3.6-5.2-5.6-7.6c-4.5-5.5-10.1-10-16-13.8c-11.3-7.4-23.7-12-37.4-12.4c-8.4-0.2-15.6,2.6-22.8,7
	C101.6,296.6,96.9,299.2,92.8,302.5"/>
<path id="Leaf" class="st2" d="M202.5,266.8c-8.8-9.1-17.6-18-27.5-26c-5.8-4.7-11.9-9-17.9-13.4c0.7,0.6,1.4,1.2,2,1.9
	c-1.9-1.3-4.3-2-6.3-3.2c-2.2-1.3-4.3-2.8-6.4-4.3c-4-2.9-8-5.9-12.2-8.7c-4.6-3.1-9.4-6-14.1-9c-4-2.5-8-5.3-12.3-7.4
	c-2.3-1.1-4.7-2.5-7-3.7c-0.8-0.4-8.7-5.4-8.7-5.4c0.4-0.3,4.4,1.5,5.1,1.8c1.8,0.7,3.5,1.6,5.3,2.5c-1-1.9-1.7-3.9-2.1-5.9
	c-0.1-0.6-1.1-5.3-0.6-5.7c0.3-0.2,2.8,8.2,2.9,9c0.1,0.7,0.1,1.6,0.3,2.2c0.3,1,0.3,0.7,1.1,1.3c1.4,1,3.2,1.7,4.7,2.5
	c0.8,0.5,3.3,2.3,4.8,2.8c4.6,2.2,9.2,5.7,13.6,8.5c-1.1-2.1-2-4.4-2.6-6.8c-0.2-0.6-1.8-5.6-1.4-5.9c0.4-0.3,3.5,7.3,3.7,8.1
	c0.3,1.3,0.4,2.8,0.8,4.2c0.5,1.4,1.9,1.9,3.3,2.8c4.9,3.1,9.5,6.4,14.2,9.8c5-9-0.8-19.8-5.7-27.3c-3.5-5.4-8.3-10.1-13.3-14.1
	c-6.7-5.4-14.3-9.7-22-13.7c-8.9-4.6-18.5-7.5-28.5-8.8c-5.2-0.7-10.6-0.7-15.9-0.4c-2.6,0.1-5.1,0.4-7.5,1.3
	c-1.1,0.4-2.2,0.9-3.2,1.4c-0.8,0.4-2.7,0.8-3.2,1.4c-3.8,4.9-5.7,9.8-5.4,16c0.3,5.8,2.1,11.7,4.6,16.9c2.8,5.8,6.4,11.1,11.1,15.5
	c3.6,3.4,7.6,6.3,11.6,9.2c14.2,10.3,32.1,19.3,50.4,17c5.9-0.7,11.6-2.8,16.8-5.6c1.2-0.7,2.5-1.3,3.7-2.1c0.8-0.5,2.9-2.9,3.7-3
	c1.1-0.1,3.4,2.1,4.5,2.8c7.8,5.1,15.3,10.5,22.8,16.2c7.9,6,15.4,12.4,22.7,19.1c3.1,2.8,6.2,5.7,9.2,8.6c0.7,0.7,2.4,3.2,3.7,3.3
	c0.8,0.1,1.3-0.6,1.2-1.4C206.1,269.7,203.4,267.8,202.5,266.8"/>
<path id="Fill-10" class="st3" d="M708.6,231.6c-3.4-0.7-7.2-0.7-10.7-0.6c-18.6,0.3-36.9,9.1-48.8,23.2c-10.1,12-12.9,26.9-14.9,42
	c-0.2,1.5-0.3,3-0.4,4.5c0,0.3-0.1,0.6-0.1,0.9c-0.8,0.7-1.2,1.5-0.7,2.4c-1.7,3.8-3.2,7.7-4.5,11.7c-3.7,11.8-7.5,23.9-5.2,36.3
	c0.5-6.8,1.7-13.8,3-20.6c0.1-0.4,0.2-0.8,0.3-1.2c0,0,0-0.1,0-0.1c0.5-2.1,1.1-4.1,1.9-6c0,0,0,0,0-0.1c0.1-0.3,0.2-0.5,0.3-0.8
	c0.2-0.5,0.4-1.1,0.7-1.6c0.1-0.2,0.2-0.4,0.2-0.5c1.1-2.7,1.6-5.8,2.6-8.6c0.2-0.6,0.5-1.3,0.7-1.9c0,0,0-0.1,0-0.1
	c0.7-1.7,1.5-3.4,2.3-5.1c0.4-0.3,0.7-1.2,1.1-1.9c0.1-0.1,0.7-1.1,0.9-1.7c0.5-0.9,1-1.9,1.5-2.8c0,0,0,0,0,0
	c0.5-0.9,1-1.8,1.5-2.7c0.1-0.2,0.2-0.4,0.3-0.6c0.2-0.3,0.3-0.6,0.5-0.9c1.6-2.9,3.4-5.8,5.2-8.6c0.6-1,2.2-2.5,2.5-3.6
	c0,0,0-0.1,0-0.1c3.9-5.5,8.4-10.5,13.8-14.5c-0.7,0.7-2,3.1-2.4,3.6c-1.1,1.4-2.3,2.8-3.6,4.2c-2.2,2.4-4.3,5-6.2,7.6
	c-3.5,4.9-6.5,10-9.3,15.2c0,0-0.1,0.1-0.1,0.1c-1.4,1.8-2.3,4.4-3.3,6.4c4-1.9,8.5-3.1,12.7-4.8c4.1-1.7,8.2-3.5,12.1-5.7
	c5.2-2.9,10.5-6.1,15.4-9.8c5.6-3.5,10.3-8.3,14.5-13.3c4.9-5.9,9.4-11.9,12.2-19.1c1.4-3.5,2.4-7.2,3.1-11c0-0.2,0.1-0.3,0.1-0.5
	c0.7-1.3,1.2-2.6,1.7-4C710.2,234.7,712,232.4,708.6,231.6"/>
<path id="Leave-the-Leaf_x21_" class="st0" d="M130.6,256.7c-1.1-1.2-2.3-2.2-3.7-2.9c-0.4-0.2-3-1.4-3.2-1.2
	C123.3,253.2,130.3,256.3,130.6,256.7 M143.2,249c0,0,0.9,1.6,1.2,2.1c0.5,1,1,2.1,1.5,3.1C145.1,252.3,144.4,250.6,143.2,249
	 M78.8,261.7c-0.9,0.3-2-0.8-0.8-1.1c0.9-0.2,0.9-0.3,1.3-1c0.3-0.6,0.5-1.4,0.8-2c0.6-1.4,1.3-2.6,2.2-3.9c1.9-2.6,4.2-4.8,6.8-6.7
	c4.5-3.3,9.5-6.3,14.9-7.8c8.5-2.4,18.2-2.5,26.7-0.9c5.3,1,10.1,2.8,13.6,7.1c1.7,2.1,3.1,4.6,3.7,7.3c0.2,0.7,0.1,1.5,0.3,2.2
	c0.3,1.1,0.2,0.8,1.4,1c1.4,0.2,2.7,0.5,4.1,0.7c3.6,0.6,7.2,1.3,10.7,2.3c1.2,0.3,2.3,0.7,3.4,1.2c0.8,0.4,4.2,1.5,4.6,2.6
	c0.7,1.8-1.6,1-2.3,0.6c-0.6-0.3-1.2-0.7-1.9-1c-1.6-0.7-3.3-1.3-5-1.8c-1.8-0.5-3.7-0.9-5.6-1.2c-1.8-0.3-3.5-0.7-5.3-1
	c-1-0.2-2-0.3-2.9-0.5c-0.3-0.1-0.9-0.3-0.9,0.1c-2.1-0.4-4.3-0.3-6.4-0.4c-2.6-0.1-5.1-0.2-7.7-0.2c-1.9,0.1-3.7,0.2-5.6,0.4
	c-1.1,0.1-2.1,0.4-3.2,0.6c-0.6,0.1-2.9,0.5-3.2,1c0.1-0.2,2.7,0,3,0c1.3,0,2.6-0.2,3.9-0.3c2.4-0.3,4.8-0.4,7.2-0.4
	c0,0.4-1.6,1.2-2,1.4c-0.9,0.6-1.8,1.3-2.5,2.1c-1.4,1.3-3.1,2.9-4.1,4.5c0.3-0.5,1.7-1.1,2.2-1.4c0.8-0.6,1.6-1.2,2.3-1.8
	c0.7-0.6,1.3-1.2,2-1.9c0.6-0.7,1.5-2,2.3-2.4c0.1,0,0.4,0.3,0.6,0.2c0.2-0.1,0.5-0.6,0.5-0.6c0.8-0.3,2.2,0.1,3.1,0.1
	c2.1,0.1,4.2,0.2,6.3,0.3c0.7,0,1.2-0.1,1.5,0.4c0.3,0.5-0.2,1.9-0.4,2.4c-0.5,2.1-1.4,3.9-2.8,5.5c-2.7,3-5.9,5-9.6,6.4
	c-14.2,5.1-29.3,7.2-43.5,1.9C86.6,273.4,77.8,269.5,78.8,261.7"/>
<g id="Background-Shape-2" transform="translate(39.000000, 358.000000)" class="st4">
	<path id="Background-Shape" class="st1" d="M689.3,146.1c9.6,65.3-224.4,107.9-425.8,78.2S-30.4,78.5,65.8,16.6
		S679.6,80.8,689.3,146.1z"/>
</g>
<g id="Mobile3" transform="translate(138.000000, 76.000000)">
	<path id="Container" class="st5" d="M35.6,0h143c4.4,0,8,3.6,8,8v286c0,4.4-3.6,8-8,8h-143c-4.4,0-8-3.6-8-8V8
		C27.6,3.6,31.2,0,35.6,0z"/>
	<circle id="Touch" class="st6" cx="106.6" cy="268" r="15"/>
	<g id="Camera" transform="translate(64.000000, 16.000000)">
		<circle id="Lens" class="st6" cx="29.6" cy="2" r="2"/>
		<path id="Sensor" class="st6" d="M38.6,0h17c1.1,0,2,0.9,2,2l0,0c0,1.1-0.9,2-2,2h-17c-1.1,0-2-0.9-2-2l0,0
			C36.6,0.9,37.5,0,38.6,0z"/>
	</g>
	<g id="Rows" transform="translate(14.000000, 28.000000)">
		<g id="Row">
			<path id="Background" class="st6" d="M31.6,0h123c2.2,0,4,1.8,4,4v46c0,2.2-1.8,4-4,4h-123c-2.2,0-4-1.8-4-4V4
				C27.6,1.8,29.4,0,31.6,0z"/>
			<g id="Text" transform="translate(39.000000, 16.200000)">
				<path id="Name" class="st1" d="M30.6,0h67c1.7,0,3,1.3,3,3v2.1c0,1.7-1.3,3-3,3h-67c-1.7,0-3-1.3-3-3V3C27.6,1.3,28.9,0,30.6,0z
					"/>
				<path id="Name_1_" class="st1" d="M30.6,13.5h43c1.7,0,3,1.3,3,3v2.1c0,1.7-1.3,3-3,3h-43c-1.7,0-3-1.3-3-3v-2.1
					C27.6,14.8,28.9,13.5,30.6,13.5z"/>
			</g>
			<circle id="Avatar" class="st7" cx="48.6" cy="27" r="12"/>
		</g>
		<g id="Row_1_" transform="translate(0.000000, 62.000000)">
			<path id="Background_1_" class="st6" d="M31.6,0h123c2.2,0,4,1.8,4,4v34c0,2.2-1.8,4-4,4h-123c-2.2,0-4-1.8-4-4V4
				C27.6,1.8,29.4,0,31.6,0z"/>
			<g id="Text_1_" transform="translate(39.000000, 12.600000)">
				<path id="Name_2_" class="st1" d="M30.6,0h67c1.7,0,3,1.3,3,3v0.3c0,1.7-1.3,3-3,3h-67c-1.7,0-3-1.3-3-3V3
					C27.6,1.3,28.9,0,30.6,0z"/>
				<path id="Name_3_" class="st1" d="M30.6,10.5h43c1.7,0,3,1.3,3,3v0.3c0,1.7-1.3,3-3,3h-43c-1.7,0-3-1.3-3-3v-0.3
					C27.6,11.8,28.9,10.5,30.6,10.5z"/>
			</g>
			<circle id="Avatar_1_" class="st7" cx="48.6" cy="21" r="12"/>
		</g>
		<g id="Row_2_" transform="translate(0.000000, 112.000000)">
			<path id="Background_2_" class="st6" d="M31.6,0h123c2.2,0,4,1.8,4,4v34c0,2.2-1.8,4-4,4h-123c-2.2,0-4-1.8-4-4V4
				C27.6,1.8,29.4,0,31.6,0z"/>
			<g id="Text_2_" transform="translate(39.000000, 12.600000)">
				<path id="Name_4_" class="st1" d="M30.6,0h67c1.7,0,3,1.3,3,3v0.3c0,1.7-1.3,3-3,3h-67c-1.7,0-3-1.3-3-3V3
					C27.6,1.3,28.9,0,30.6,0z"/>
				<path id="Name_5_" class="st1" d="M30.6,10.5h43c1.7,0,3,1.3,3,3v0.3c0,1.7-1.3,3-3,3h-43c-1.7,0-3-1.3-3-3v-0.3
					C27.6,11.8,28.9,10.5,30.6,10.5z"/>
			</g>
			<circle id="Avatar_2_" class="st8" cx="48.6" cy="21" r="12"/>
		</g>
		<g id="Row_3_" transform="translate(0.000000, 162.000000)">
			<path id="Background_3_" class="st6" d="M31.6,0h123c2.2,0,4,1.8,4,4v34c0,2.2-1.8,4-4,4h-123c-2.2,0-4-1.8-4-4V4
				C27.6,1.8,29.4,0,31.6,0z"/>
			<g id="Text_3_" transform="translate(39.000000, 12.600000)">
				<path id="Name_6_" class="st1" d="M30.6,0h67c1.7,0,3,1.3,3,3v0.3c0,1.7-1.3,3-3,3h-67c-1.7,0-3-1.3-3-3V3
					C27.6,1.3,28.9,0,30.6,0z"/>
				<path id="Name_7_" class="st1" d="M30.6,10.5h43c1.7,0,3,1.3,3,3v0.3c0,1.7-1.3,3-3,3h-43c-1.7,0-3-1.3-3-3v-0.3
					C27.6,11.8,28.9,10.5,30.6,10.5z"/>
			</g>
			<circle id="Avatar_3_" class="st7" cx="48.6" cy="21" r="12"/>
		</g>
	</g>
</g>
<g id="Group" transform="translate(0.000000, 218.000000)">
	<path id="Fill-16_1_" class="st0" d="M195.7,102c-1.3,0-2.6,0-4,0.1c-1,0.1-2.5-0.2-3.4,0.5c-0.9,0.7-0.8,2-0.7,2.9
		c0.7,5,2.5,9.4,6.3,13c5.8,5.4,12.4,8.2,20.2,9.4c5.5,0.9,10.5-0.3,14.6-4.2c3,5.5,5.2,11.5,6.3,17.7c0.6,3,0.7,6,0.6,9.1
		c-0.1,2-0.2,3.9-0.4,5.9c-0.1,0.9-0.5,2.1-0.2,2.9c0.4,0.9,1.7,1,2.3,0.2c0.5-0.7,0.4-2,0.5-2.8c0.2-1.3,0.3-2.6,0.4-4
		c0.2-2.1,0.3-4.3,0.3-6.4c0-4.8-1.1-9.7-2.6-14.3c-2.8-8.8-7.4-16.6-14.5-22.8c-4.4-3.8-9.4-5.3-15.1-6.1
		C202.9,102.6,199.3,102,195.7,102"/>
	<path id="Fill-18" class="st0" d="M216.1,137c-14.3,0-23.9,11.5-28.5,23.5c-1.7,4.5-2.1,9.5-2.8,14.2c-0.2,1.5-0.1,3.8-0.8,5.2
		c-0.2,0.5-0.7,0.7-0.5,1.3c0.1,0.4,0.4,0.7,0.9,0.7c0.9,0.2,2.2-0.8,2.9-1.2c6.4-3.2,10.6-8.2,14-14.2c2.1-3.8,4.3-7.7,5.5-11.8
		c0.8-2.5,1.2-5.2,1.5-7.8c0.1-1,0.2-2.1,0.2-3.1c0-1-0.5-1.6-0.8-2.5c4.8-1.8,10.2-2.3,15-0.4c4.5,1.7,8.2,5.1,10.3,9.3
		c0.5,1.1,1,2.2,1.3,3.4c0.2,0.8,0.2,1.8,0.6,2.5c0.9,1.7,2.8,0.6,2.6-1c-0.5-4.4-3-8.8-6.2-11.8C227.3,139.4,221.8,137,216.1,137"
		/>
</g>
<path id="Container_1_" class="st1" d="M239.6,102h143c4.4,0,8,3.6,8,8v286c0,4.4-3.6,8-8,8h-143c-4.4,0-8-3.6-8-8V110
	C231.6,105.6,235.2,102,239.6,102z"/>
<circle id="Touch_1_" class="st6" cx="310.6" cy="370" r="15"/>
<g id="Camera_1_" transform="translate(112.000000, 16.000000)">
	<circle id="Lens_1_" class="st6" cx="185.6" cy="104" r="2"/>
	<path id="Sensor_1_" class="st6" d="M194.6,102h17c1.1,0,2,0.9,2,2l0,0c0,1.1-0.9,2-2,2h-17c-1.1,0-2-0.9-2-2l0,0
		C192.6,102.9,193.5,102,194.6,102z"/>
</g>
<g id="Rows_1_" transform="translate(62.000000, 28.000000)">
	<g id="Row_4_">
		<path id="Container_2_" class="st6" d="M187.6,102h123c2.2,0,4,1.8,4,4v46c0,2.2-1.8,4-4,4h-123c-2.2,0-4-1.8-4-4v-46
			C183.6,103.8,185.4,102,187.6,102z"/>
		<g id="Text-Stuff" transform="translate(9.000000, 16.200000)">
			<path id="Label" class="st1" d="M186.6,102h67c1.7,0,3,1.3,3,3v2.1c0,1.7-1.3,3-3,3h-67c-1.7,0-3-1.3-3-3V105
				C183.6,103.3,184.9,102,186.6,102z"/>
			<path id="Label_1_" class="st1" d="M186.6,115.5h43c1.7,0,3,1.3,3,3v2.1c0,1.7-1.3,3-3,3h-43c-1.7,0-3-1.3-3-3v-2.1
				C183.6,116.8,184.9,115.5,186.6,115.5z"/>
		</g>
		<g id="Check" transform="translate(110.000000, 20.000000)">
			<circle id="Background_4_" class="st1" cx="190.6" cy="109" r="7"/>
			<circle id="Indicator" class="st5" cx="190.6" cy="109" r="3"/>
		</g>
	</g>
	<g id="Row_5_" transform="translate(0.000000, 62.000000)">
		<path id="Background_5_" class="st6" d="M187.6,102h123c2.2,0,4,1.8,4,4v34c0,2.2-1.8,4-4,4h-123c-2.2,0-4-1.8-4-4v-34
			C183.6,103.8,185.4,102,187.6,102z"/>
		<g id="Text_4_" transform="translate(39.000000, 12.600000)">
			<path id="Name_8_" class="st1" d="M186.6,102h67c1.7,0,3,1.3,3,3v0.3c0,1.7-1.3,3-3,3h-67c-1.7,0-3-1.3-3-3V105
				C183.6,103.3,184.9,102,186.6,102z"/>
			<path id="Name_9_" class="st1" d="M186.6,112.5h43c1.7,0,3,1.3,3,3v0.3c0,1.7-1.3,3-3,3h-43c-1.7,0-3-1.3-3-3v-0.3
				C183.6,113.8,184.9,112.5,186.6,112.5z"/>
		</g>
		<circle id="Avatar_4_" class="st7" cx="204.6" cy="123" r="12"/>
	</g>
	<g id="Row_6_" transform="translate(0.000000, 112.000000)">
		<path id="Container_3_" class="st6" d="M187.6,102h123c2.2,0,4,1.8,4,4v34c0,2.2-1.8,4-4,4h-123c-2.2,0-4-1.8-4-4v-34
			C183.6,103.8,185.4,102,187.6,102z"/>
		<g id="Text-Stuff_1_" transform="translate(9.000000, 12.600000)">
			<path id="Label_2_" class="st1" d="M186.6,102h67c1.7,0,3,1.3,3,3v0.3c0,1.7-1.3,3-3,3h-67c-1.7,0-3-1.3-3-3V105
				C183.6,103.3,184.9,102,186.6,102z"/>
			<path id="Label_3_" class="st8" d="M186.6,112.5h43c1.7,0,3,1.3,3,3v0.3c0,1.7-1.3,3-3,3h-43c-1.7,0-3-1.3-3-3v-0.3
				C183.6,113.8,184.9,112.5,186.6,112.5z"/>
		</g>
		<g id="Check_1_" transform="translate(110.000000, 14.000000)">
			<circle id="Background_6_" class="st1" cx="190.6" cy="109" r="7"/>
			<circle id="Indicator_1_" class="st5" cx="190.6" cy="109" r="3"/>
		</g>
	</g>
	<g id="Row_7_" transform="translate(0.000000, 162.000000)">
		<path id="Background_7_" class="st6" d="M187.6,102h123c2.2,0,4,1.8,4,4v34c0,2.2-1.8,4-4,4h-123c-2.2,0-4-1.8-4-4v-34
			C183.6,103.8,185.4,102,187.6,102z"/>
		<g id="Text_5_" transform="translate(39.000000, 12.600000)">
			<path id="Name_10_" class="st1" d="M186.6,102h67c1.7,0,3,1.3,3,3v0.3c0,1.7-1.3,3-3,3h-67c-1.7,0-3-1.3-3-3V105
				C183.6,103.3,184.9,102,186.6,102z"/>
			<path id="Name_11_" class="st1" d="M186.6,112.5h43c1.7,0,3,1.3,3,3v0.3c0,1.7-1.3,3-3,3h-43c-1.7,0-3-1.3-3-3v-0.3
				C183.6,113.8,184.9,112.5,186.6,112.5z"/>
		</g>
		<circle id="Avatar_5_" class="st7" cx="204.6" cy="123" r="12"/>
	</g>
</g>
<path id="Container_4_" class="st5" d="M305.6,127h319c4.4,0,8,3.6,8,8v330c0,4.4-3.6,8-8,8h-319c-4.4,0-8-3.6-8-8V135
	C297.6,130.6,301.2,127,305.6,127z"/>
<path id="Background_8_" class="st6" d="M554.6,170h54c4.4,0,8,3.6,8,8v65c0,4.4-3.6,8-8,8h-54c-4.4,0-8-3.6-8-8v-65
	C546.6,173.6,550.2,170,554.6,170z"/>
<g id="Profile-Info" transform="translate(259.000000, 58.000000)">
	<circle id="Avatar_6_" class="st1" cx="322.6" cy="143" r="16"/>
	<path id="Name_12_" class="st1" d="M300.6,163h44c1.7,0,3,1.3,3,3l0,0c0,1.7-1.3,3-3,3h-44c-1.7,0-3-1.3-3-3l0,0
		C297.6,164.3,298.9,163,300.6,163z"/>
	<path id="Name_13_" class="st1" d="M308.6,173h28c1.7,0,3,1.3,3,3l0,0c0,1.7-1.3,3-3,3h-28c-1.7,0-3-1.3-3-3l0,0
		C305.6,174.3,306.9,173,308.6,173z"/>
</g>
<path id="Header" class="st7" d="M305.6,127h319c4.4,0,8,3.6,8,8v19h-335v-19C297.6,130.6,301.2,127,305.6,127z"/>
<g id="Buttons" transform="translate(9.000000, 10.000000)">
	<circle id="buttons" class="st5" cx="301.6" cy="131" r="4"/>
	<circle id="buttons_1_" class="st5" cx="313.6" cy="131" r="4"/>
	<circle id="buttons_2_" class="st5" cx="325.6" cy="131" r="4"/>
</g>
<g id="Components" transform="translate(249.000000, 132.000000)">
	<path id="Background_9_" class="st6" d="M305.6,127h54c4.4,0,8,3.6,8,8v178c0,4.4-3.6,8-8,8h-54c-4.4,0-8-3.6-8-8V135
		C297.6,130.6,301.2,127,305.6,127z"/>
	<g id="Rows_2_" transform="translate(18.000000, 18.000000)">
		<path id="Data" class="st1" d="M301.6,127h26c2.2,0,4,1.8,4,4v18c0,2.2-1.8,4-4,4h-26c-2.2,0-4-1.8-4-4v-18
			C297.6,128.8,299.4,127,301.6,127z"/>
		<path id="Data_1_" class="st8" d="M301.6,161h26c2.2,0,4,1.8,4,4v17c0,2.2-1.8,4-4,4h-26c-2.2,0-4-1.8-4-4v-17
			C297.6,162.8,299.4,161,301.6,161z"/>
		<path id="Data_2_" class="st1" d="M301.6,194h26c2.2,0,4,1.8,4,4v17c0,2.2-1.8,4-4,4h-26c-2.2,0-4-1.8-4-4v-17
			C297.6,195.8,299.4,194,301.6,194z"/>
		<path id="Data_3_" class="st1" d="M301.6,260h26c2.2,0,4,1.8,4,4v17c0,2.2-1.8,4-4,4h-26c-2.2,0-4-1.8-4-4v-17
			C297.6,261.8,299.4,260,301.6,260z"/>
		<path id="Data_4_" class="st7" d="M301.6,227h26c2.2,0,4,1.8,4,4v17c0,2.2-1.8,4-4,4h-26c-2.2,0-4-1.8-4-4v-17
			C297.6,228.8,299.4,227,301.6,227z"/>
	</g>
</g>
<g id="Row_11_" transform="translate(0.000000, 243.000000)">
	<path id="Container_8_" class="st6" d="M317.6,171h217c2.2,0,4,1.8,4,4v31c0,2.2-1.8,4-4,4h-217c-2.2,0-4-1.8-4-4v-31
		C313.6,172.8,315.4,171,317.6,171z"/>
	<g id="Text-Stuff_5_" transform="translate(9.000000, 11.700000)">
		<path id="Label_10_" class="st1" d="M316.5,171h161.1c1.6,0,2.9,1.3,2.9,2.9l0,0c0,1.6-1.3,2.9-2.9,2.9H316.5
			c-1.6,0-2.9-1.3-2.9-2.9l0,0C313.6,172.3,314.9,171,316.5,171z"/>
		<path id="Label_11_" class="st1" d="M316.5,180.7h106.2c1.6,0,2.9,1.3,2.9,2.9l0,0c0,1.6-1.3,2.9-2.9,2.9H316.5
			c-1.6,0-2.9-1.3-2.9-2.9l0,0C313.6,182,314.9,180.7,316.5,180.7z"/>
	</g>
	<g id="Check_5_" transform="translate(193.954198, 12.500000)">
		<circle id="Background_13_" class="st1" cx="320.6" cy="178" r="7"/>
		<circle id="Indicator_5_" class="st5" cx="320.6" cy="178" r="3"/>
	</g>
</g>
<g id="Row_12_" transform="translate(0.000000, 196.000000)">
	<path id="Container_9_" class="st6" d="M317.6,171h217c2.2,0,4,1.8,4,4v31c0,2.2-1.8,4-4,4h-217c-2.2,0-4-1.8-4-4v-31
		C313.6,172.8,315.4,171,317.6,171z"/>
	<g id="Text-Stuff_6_" transform="translate(9.000000, 11.700000)">
		<path id="Label_12_" class="st1" d="M316.5,171h161.1c1.6,0,2.9,1.3,2.9,2.9l0,0c0,1.6-1.3,2.9-2.9,2.9H316.5
			c-1.6,0-2.9-1.3-2.9-2.9l0,0C313.6,172.3,314.9,171,316.5,171z"/>
		<path id="Label_13_" class="st1" d="M316.5,180.7h106.2c1.6,0,2.9,1.3,2.9,2.9l0,0c0,1.6-1.3,2.9-2.9,2.9H316.5
			c-1.6,0-2.9-1.3-2.9-2.9l0,0C313.6,182,314.9,180.7,316.5,180.7z"/>
	</g>
	<g id="Check_6_" transform="translate(193.954198, 12.500000)">
		<circle id="Background_14_" class="st1" cx="320.6" cy="178" r="7"/>
		<circle id="Indicator_6_" class="st5" cx="320.6" cy="178" r="3"/>
	</g>
</g>
<path id="Fill-1" class="st2" d="M715.6,297.4c-3.9-2.7-9.2-3.4-13.9-3.4c-18.4,0-35.8,6.8-50.7,17c-8.2,5.6-15.5,12.7-22,20.1
	c-3.7,4.3-7.1,8.9-9.4,14c-1.6,3.5-2.7,7.1-3.4,10.8c-0.9,4.5-1.6,9.2-1.9,13.8c-0.1,1.8-1.2,11.5,1.8,11.6c0,0.2,0,0.5,0,0.7
	c-6.6,10.3-10.6,22.3-14.4,33.7c-3.3,9.9-6.2,20-8.1,30.2c-2.5,13.5-4.1,27.3-4.9,41c-0.2,2.9-0.3,5.9-0.4,8.9
	c-0.1,2.5-0.2,5-0.3,7.6c-0.1,2.8-0.6,6.1-0.1,8.9c0.4,2.4,2.5,2.1,2.6-0.4c0.1-2.9,0.1-5.9,0.2-8.8c0.2-3.9,0.3-7.8,0.5-11.7
	c1.3-27.1,6.3-53.8,15.5-79.4c3.7-10.4,8-20.2,13.5-29.7c4.8-8.4,10.6-16.6,16.5-24.2c5.8-7.4,11.8-14.6,18.8-20.8
	c5.7-5.1,12-9.5,18.5-13.6c8.2-5.2,16.4-10.3,25.4-14.3c4.6-2.1,9.4-4,14-6c0.8-0.4,1.7-0.7,2.5-1.1
	C718.6,300.9,717.7,298.8,715.6,297.4"/>
<path id="Fill-20" class="st0" d="M641.4,392c7.5,0,14.1,1,21,3.9c5.9,2.6,11.4,6,16.6,9.7c7.4,5.2,13.2,11.2,17.3,19.3
	c2.4,4.8,4.2,11.6,2.6,16.8c-1.9,6.2-7.2,11.3-14.2,10.2c-4.3-0.7-8.3-3.5-11.5-6.2c-3.9-3.2-7.1-7.1-9.7-11.4
	c-4.2-7-6.7-14.9-10.3-22.2c-1.7-3.5-3.4-7-5.4-10.3c-1-1.6-2.1-3.3-3.6-4.5c-0.8-0.6-4.3-1.8-3-3.2c-19.4,0.3-36.6,15.1-40.3,33.6
	c-0.3,1.7-0.6,3.5-0.9,5.2c-0.2,1.1-0.1,5.1-1.1,5.8c-2.2,1.5-1.2-3.1-1.2-3.8c0.2-1.7,0.5-3.5,0.8-5.2c1.5-9.4,5.7-18.2,12.7-24.9
	C619.3,397,630.1,392,641.4,392"/>
<g id="Plant" transform="translate(65.000000, 333.000000)">
	<path id="Fill-19" class="st1" d="M37.5,35.7C56.2,67,77.9,97.3,91,131.6c-0.5-4-1.1-8.1-1.7-12.1C86,98.2,81.8,77,77.5,55.8
		C75.3,45,73,34.3,70.6,23.6C69.3,17.8,68,12,66.7,6.3c-0.3-1.4-0.6-3.8-1-6.3c12.7,41.6,24.9,83.3,33.9,125.9
		c1.2,5.6,2.2,11.2,3,16.8c0.3-1.3,0.6-2.5,0.9-3.8c3.6-15.2,9.1-30.3,15.5-44.5c3.1-6.8,6.6-13.5,10.8-19.6
		c2.6-3.9,8.8-8.5,11.1-12.4c-13,23.9-17.7,53.7-25.2,79.7c-1.8,6.3-3.7,12.7-5.5,19c11.3-22.7,28.9-41.4,53.3-49.5
		c-29.6,19.5-47.3,53.8-59.3,88.8c0,0.4-0.1,0.8-0.1,1.2c3.5-6.7,7.9-12.7,14-16.9c12.9-9.1,27.1-6.4,39.6,1.4
		c-9.8-6.2-27.5-0.6-35.7,5.8c-5.9,4.5-10.9,10.6-15.3,16.5c-1,1.4-2.5,3.1-4,4.8c-2.1,13.8-5.6,27.4-10.5,41
		c0.8-3.9,0.2-10.1,0.4-13c0-0.3,0-0.6,0.1-0.9c-0.7,3-1.5,5.9-2.2,8.8c1.4-5.5,2.1-11.3,2.7-17.1c0.2-2.5,0.3-5,0.5-7.5
		c0-4.7-0.2-9.5-0.6-14.3c-1.2-4.6-2.5-9-3.6-12.6C85.7,184.3,80,171.7,73,160c-6.4-10.7-14.1-20.4-23-29.1
		c-4.8-4.7-9.8-9.2-14.7-13.8c-1.8-1.6-5-5.7-7.7-7.8c20.1,11.1,40.7,23,55.4,40.9c-1.7-6.6-3.6-13.1-5.6-19.5
		C67.4,98.4,54.8,64.9,37.5,35.7z"/>
	<path id="Base" class="st7" d="M57.6,213c0,35.9,2.8,65,41,65s41-29.1,41-65"/>
</g>
<g id="Graph" transform="translate(520.000000, 52.000000)">
	<path id="Value" class="st1" d="M30.6,32L30.6,32c1.7,0,3,1.3,3,3v19c0,1.7-1.3,3-3,3l0,0c-1.7,0-3-1.3-3-3V35
		C27.6,33.3,28.9,32,30.6,32z"/>
	<path id="Value_1_" class="st1" d="M44.6,16L44.6,16c1.7,0,3,1.3,3,3v35c0,1.7-1.3,3-3,3l0,0c-1.7,0-3-1.3-3-3V19
		C41.6,17.3,42.9,16,44.6,16z"/>
	<path id="Value_2_" class="st1" d="M58.6,8L58.6,8c1.7,0,3,1.3,3,3v43c0,1.7-1.3,3-3,3l0,0c-1.7,0-3-1.3-3-3V11
		C55.6,9.3,56.9,8,58.6,8z"/>
	<path id="Value_3_" class="st1" d="M72.6,16L72.6,16c1.7,0,3,1.3,3,3v35c0,1.7-1.3,3-3,3l0,0c-1.7,0-3-1.3-3-3V19
		C69.6,17.3,70.9,16,72.6,16z"/>
	<path id="Value_4_" class="st7" d="M86.6,0L86.6,0c1.7,0,3,1.3,3,3v51c0,1.7-1.3,3-3,3l0,0c-1.7,0-3-1.3-3-3V3
		C83.6,1.3,84.9,0,86.6,0z"/>
</g>
<g id="Pie-Chart" transform="translate(48.000000, 358.000000) scale(-1, 1) translate(-48.000000, -358.000000) translate(28.000000, 338.000000)">
	<path id="Value_5_" class="st5" d="M12.4,20.2C12.4,9.1,3.4,0-7.6,0v20.3L6.1,35C10,31.4,12.4,26.1,12.4,20.2z"/>
	<path id="Value_6_" class="st8" d="M-7,20h-20.2c0,5.2,2.1,10.1,5.5,13.7C-18,37.5-12.8,40-7,40c5.3,0,10.1-2.1,13.8-5.4L-7,20z"/>
	<path id="Value_7_" class="st7" d="M-27.6,20c0-11,9-20,20-20v20H-27.6z M2.4,0l-8,18l18-8C10.6,5.3,6.6,1.8,2.4,0z"/>
</g>
<g id="Chart" transform="translate(641.000000, 330.000000)">
	<path id="Value_8_" class="st5" d="M65.3,37.2c-1.9,2-4.6,3.3-7.7,3.3c-5.8,0-10.5-4.7-10.5-10.5s4.7-10.5,10.5-10.5V0
		C41.1,0,27.6,13.5,27.6,30s13.5,30,30.1,30c8.7,0,16.5-3.7,21.9-9.5L65.3,37.2z"/>
	<path id="Value_9_" class="st8" d="M57.6,0v19.5c5.8,0,10.5,4.7,10.5,10.5h19.5C87.6,13.5,74.1,0,57.6,0z"/>
	<path id="Value_10_" class="st7" d="M67.7,30c0,3.4-1.6,6.4-4.1,8.4L75.8,54c7.1-5.6,11.7-14.3,11.7-24H67.7z"/>
</g>
<g id="Chart_1_" transform="translate(459.000000, 63.000000)">
	<path id="Value_11_" class="st5" d="M56.6,28.5C55.1,30,53.1,31,50.7,31c-4.5,0-8.1-3.6-8.1-8s3.6-8.1,8.1-8.1V0
		C38,0,27.6,10.3,27.6,23S38,46,50.7,46c6.7,0,12.7-2.8,16.8-7.3L56.6,28.5z"/>
	<path id="Value_12_" class="st8" d="M50.6,0v14.9c4.4,0,8,3.6,8,8.1h15C73.6,10.3,63.2,0,50.6,0z"/>
	<path id="Value_13_" class="st7" d="M58.6,23c0,2.6-1.2,4.8-3.1,6.3L64.8,41c5.4-4.2,8.8-10.7,8.8-18H58.6z"/>
</g>
<g id="Image" transform="translate(76.000000, 57.000000)">
	<path id="Fill-35" class="st7" d="M75.6,52C75.6,52,75.6,52,75.6,52C75.6,52,75.6,51.9,75.6,52"/>
	<path id="Fill-37" class="st7" d="M75.6,52C75.6,52,75.6,52,75.6,52C75.6,52,75.6,51.9,75.6,52"/>
	<path id="Fill-39" class="st7" d="M75.6,51.8c0,0,0,0.1,0,0.1C75.6,51.9,75.6,51.9,75.6,51.8C75.4,52.4,75.5,52.1,75.6,51.8"/>
	<path id="Fill-41" class="st7" d="M75.6,51.9C75.6,51.9,75.6,52,75.6,51.9C75.5,52.1,75.6,51.9,75.6,51.9"/>
	<polygon id="Fill-43" class="st7" points="75.6,52 75.6,52 75.6,52 	"/>
	<path id="Fill-45" class="st7" d="M75.6,52C75.6,52,75.6,52,75.6,52C75.6,52,75.6,52,75.6,52"/>
	<path id="Fill-47" class="st7" d="M75.6,52C75.6,52,75.6,51.9,75.6,52"/>
	<path id="Fill-49" class="st7" d="M75.6,52L75.6,52C75.6,52,75.6,52,75.6,52"/>
	<path id="Photo-Background" class="st1" d="M31.6,0h87c2.2,0,4,1.8,4,4v55c0,2.2-1.8,4-4,4h-87c-2.2,0-4-1.8-4-4V4
		C27.6,1.8,29.4,0,31.6,0z"/>
	<g id="icons8-night_landscape" transform="translate(8.000000, 18.000000)">
		<polygon id="Mountains" class="st8" points="55.6,0 27.6,45 83.6,45 		"/>
		<polygon id="Mountains_1_" class="st7" points="83.1,12 58.6,45 107.6,45 		"/>
	</g>
	<circle id="Sun" class="st6" cx="101.6" cy="21" r="9"/>
</g>
<path class="st6" d="M529.7,359.9H321.4c-4.6,0-8.4-3.7-8.4-8.4V178.3c0-4.6,3.7-8.4,8.4-8.4h208.3c4.6,0,8.4,3.7,8.4,8.4v173.2
	C538.1,356.2,534.3,359.9,529.7,359.9z"/>
<path id="Fill-35_1_" class="st7" d="M628.6,536C628.6,536,628.6,536,628.6,536C628.6,536,628.6,535.9,628.6,536"/>
<path id="Fill-37_1_" class="st7" d="M628.6,536C628.6,536,628.6,536,628.6,536C628.6,536,628.6,535.9,628.6,536"/>
<path id="Fill-39_1_" class="st7" d="M628.5,535.8c0,0,0,0.1,0,0.1C628.5,535.9,628.5,535.9,628.5,535.8
	C628.7,536.4,628.6,536.1,628.5,535.8"/>
<path id="Fill-41_1_" class="st7" d="M628.6,535.9C628.6,535.9,628.6,536,628.6,535.9C628.6,536.1,628.6,535.9,628.6,535.9"/>
<polygon id="Fill-43_1_" class="st7" points="628.6,536 628.6,536 628.6,536 "/>
<path id="Fill-45_1_" class="st7" d="M628.6,536C628.6,536,628.6,536,628.6,536C628.6,536,628.6,536,628.6,536"/>
<path id="Fill-47_1_" class="st7" d="M628.6,536C628.6,536,628.5,535.9,628.6,536"/>
<path id="Fill-49_1_" class="st7" d="M628.6,536L628.6,536C628.6,536,628.6,536,628.6,536"/>
<path id="Photo-Background_1_" class="st1" d="M695.6,459h-134c-2.2,0-4,1.8-4,4v86c0,2.2,1.8,4,4,4h134c2.2,0,4-1.8,4-4v-86
	C699.6,460.8,697.8,459,695.6,459z"/>
<path id="Label_4_" class="st1" d="M327.4,181.5h161c1.7,0,3,1.3,3,3v1.1c0,1.7-1.3,3-3,3h-161c-1.7,0-3-1.3-3-3v-1.1
	C324.4,182.8,325.8,181.5,327.4,181.5z"/>
<path id="Label_8_" class="st1" d="M327.9,213.2v122.6c0,1.3-1.3,2.3-3,2.3h-1c-1.7,0-3-1-3-2.3V213.2c0-1.3,1.3-2.3,3-2.3h1
	C326.6,210.9,327.9,211.9,327.9,213.2z"/>
<path id="Label_9_" class="st1" d="M500.1,338.5H324.2c-1.8,0-3.3-1.3-3.3-3v-1.1c0-1.7,1.5-3,3.3-3h175.9c1.8,0,3.3,1.3,3.3,3v1.1
	C503.4,337.2,501.9,338.5,500.1,338.5z"/>
<path id="Label_5_" class="st1" d="M382.6,272l-42.8,56.5c-0.7,0.9-2.3,0.8-3.6-0.2l-0.8-0.6c-1.3-1-1.8-2.5-1.2-3.4l42.8-56.5
	c0.7-0.9,2.3-0.8,3.6,0.2l0.8,0.6C382.8,269.6,383.3,271.2,382.6,272z"/>
<path id="Label_6_" class="st1" d="M385,307l-9.1-34.7c-0.1-0.5,1-1.3,2.6-1.7l1-0.3c1.6-0.4,3-0.3,3.2,0.2l9.1,34.7
	c0.1,0.5-1,1.3-2.6,1.7l-1,0.3C386.6,307.6,385.2,307.5,385,307z"/>
<path id="Label_7_" class="st1" d="M430.1,240l-38.3,65.4c-0.6,1-2.2,1.2-3.7,0.3l-0.9-0.5c-1.4-0.8-2.1-2.3-1.5-3.4l38.3-65.4
	c0.6-1,2.2-1.2,3.7-0.3l0.9,0.5C430,237.5,430.7,239,430.1,240z"/>
<path id="Label_15_" class="st1" d="M477.3,213.4l-38.3,65.4c-0.6,1-2.2,1.2-3.7,0.3l-0.9-0.5c-1.4-0.8-2.1-2.3-1.5-3.4l38.3-65.4
	c0.6-1,2.2-1.2,3.7-0.3l0.9,0.5C477.2,210.9,477.9,212.4,477.3,213.4z"/>
<path id="Label_14_" class="st1" d="M432.7,276.4l-9.4-36c-0.1-0.6,1-1.4,2.6-1.8l1-0.3c1.6-0.4,3-0.3,3.2,0.3l9.4,36
	c0.1,0.6-1,1.4-2.6,1.8l-1,0.3C434.3,277.1,432.9,277,432.7,276.4z"/>
<g id="Check_2_" transform="translate(193.954198, 16.500000)">
	<circle id="Background_10_" class="st1" cx="320.6" cy="168.4" r="7"/>
	<circle id="Indicator_2_" class="st5" cx="320.6" cy="168.4" r="3"/>
</g>
<path id="Label_17_" class="st8" d="M569.2,473h35.3c1.4,0,2.5,1.3,2.5,3v0.3c0,1.7-1.1,3-2.5,3h-35.3c-1.4,0-2.5-1.3-2.5-3V476
	C566.7,474.3,567.8,473,569.2,473z"/>
<path id="Label_16_" class="st8" d="M626.8,473h60c2.3,0,4.2,1.3,4.2,3v0.3c0,1.7-1.9,3-4.2,3h-60c-2.3,0-4.2-1.3-4.2-3V476
	C622.6,474.3,624.5,473,626.8,473z"/>
<path id="Label_21_" class="st8" d="M626.4,485.3h60c2.3,0,4.2,1.3,4.2,3v0.3c0,1.7-1.9,3-4.2,3h-60c-2.3,0-4.2-1.3-4.2-3v-0.3
	C622.2,486.6,624.1,485.3,626.4,485.3z"/>
<path id="Label_22_" class="st8" d="M626.2,497.3h60c2.3,0,4.2,1.3,4.2,3v0.3c0,1.7-1.9,3-4.2,3h-60c-2.3,0-4.2-1.3-4.2-3v-0.3
	C622.1,498.7,623.9,497.3,626.2,497.3z"/>
<path id="Label_23_" class="st8" d="M626.6,509.4h60c2.3,0,4.2,1.3,4.2,3v0.3c0,1.7-1.9,3-4.2,3h-60c-2.3,0-4.2-1.3-4.2-3v-0.3
	C622.4,510.7,624.2,509.4,626.6,509.4z"/>
<path id="Label_18_" class="st8" d="M568.8,485.3h35.3c1.4,0,2.5,1.3,2.5,3v0.3c0,1.7-1.1,3-2.5,3h-35.3c-1.4,0-2.5-1.3-2.5-3v-0.3
	C566.4,486.6,567.5,485.3,568.8,485.3z"/>
<path id="Label_19_" class="st8" d="M569,497.3h35.3c1.4,0,2.5,1.3,2.5,3v0.3c0,1.7-1.1,3-2.5,3H569c-1.4,0-2.5-1.3-2.5-3v-0.3
	C566.5,498.7,567.6,497.3,569,497.3z"/>
<path id="Label_20_" class="st8" d="M569,509.4h35.3c1.4,0,2.5,1.3,2.5,3v0.3c0,1.7-1.1,3-2.5,3H569c-1.4,0-2.5-1.3-2.5-3v-0.3
	C566.5,510.7,567.6,509.4,569,509.4z"/>
</svg>
