<?xml version="1.0" encoding="utf-8"?>
<!-- Generator: Adobe Illustrator 22.1.0, SVG Export Plug-In . SVG Version: 6.00 Build 0)  -->
<svg version="1.1" id="Capa_1" xmlns="http://www.w3.org/2000/svg" xmlns:xlink="http://www.w3.org/1999/xlink" x="0px" y="0px"
	 viewBox="0 0 31.6 31.6" style="enable-background:new 0 0 31.6 31.6;" xml:space="preserve">
<style type="text/css">
	.st0{fill:url(#SVGID_1_);}
	.st1{fill:url(#SVGID_2_);}
	.st2{fill:url(#SVGID_3_);}
	.st3{fill:url(#SVGID_4_);}
</style>
<linearGradient id="SVGID_1_" gradientUnits="userSpaceOnUse" x1="-6.7492" y1="21.3457" x2="19.4384" y2="-4.842">
	<stop  offset="0" style="stop-color:#21D4FD"/>
	<stop  offset="1" style="stop-color:#B721FF"/>
</linearGradient>
<path class="st0" d="M7.7,16c0,0,5.7-5.6,5.7-10.3c0-3.1-2.5-5.7-5.7-5.7S2.1,2.6,2.1,5.7C2.1,10.7,7.7,16,7.7,16z M4.8,5.7
	c0-1.6,1.3-2.9,2.9-2.9s2.9,1.3,2.9,2.9c0,1.6-1.3,2.9-2.9,2.9S4.8,7.3,4.8,5.7z"/>
<linearGradient id="SVGID_2_" gradientUnits="userSpaceOnUse" x1="5.2764" y1="33.1108" x2="31.464" y2="6.9232">
	<stop  offset="0" style="stop-color:#21D4FD"/>
	<stop  offset="1" style="stop-color:#B721FF"/>
</linearGradient>
<path class="st1" d="M28.6,7.6l-0.5,0.1L25.7,8L25,9.1L24.5,9l-2-1.8l-0.3-0.9l-0.4-1l-1.2-1.1l-1.4-0.3l0,0.7L20.6,6l0.7,0.8
	l-0.8,0.4L19.9,7l-1-0.4l0-0.8l-1.3-0.5l-0.4,1.8L16,7.4l0.1,1l1.6,0.3l0.3-1.6l1.4,0.2L20,7.7h1l0.7,1.4l1.8,1.9l-0.1,0.7L22,11.5
	l-2.6,1.3L17.6,15l-0.2,1h-0.7l-1.2-0.6l-1.2,0.6l0.3,1.3l0.5-0.6l0.9,0l-0.1,1.1l0.8,0.2l0.8,0.9l1.2-0.3l1.4,0.2l1.6,0.4l0.8,0.1
	l1.4,1.6l2.7,1.6l-1.7,3.3L23,26.5l-0.7,1.9l-2.6,1.8l-0.3,1c6.8-1.6,11.8-7.7,11.8-15C31.2,13,30.2,10.1,28.6,7.6z"/>
<linearGradient id="SVGID_3_" gradientUnits="userSpaceOnUse" x1="1.2601" y1="29.0944" x2="27.4477" y2="2.9068">
	<stop  offset="0" style="stop-color:#21D4FD"/>
	<stop  offset="1" style="stop-color:#B721FF"/>
</linearGradient>
<path class="st2" d="M17.6,24.3l-1.1-2.1l1-2.1l-1-0.3l-1.2-1.2L12.7,18l-0.9-1.8v1.1h-0.4l-1.6-2.2c-0.8,0.9-1.4,1.6-1.5,1.6
	l-0.7,0.7L7,16.7c-0.2-0.2-3.5-3.3-5.1-7.1c-1,2-1.5,4.3-1.5,6.6c0,8.5,6.9,15.4,15.4,15.4c0.7,0,1.3-0.1,1.9-0.1l-0.2-1.9
	c0,0,0.7-2.8,0.7-2.9C18.3,26.6,17.6,24.3,17.6,24.3z"/>
<linearGradient id="SVGID_4_" gradientUnits="userSpaceOnUse" x1="-4.3117" y1="23.5227" x2="21.8759" y2="-2.6649">
	<stop  offset="0" style="stop-color:#21D4FD"/>
	<stop  offset="1" style="stop-color:#B721FF"/>
</linearGradient>
<path class="st3" d="M14.6,3.8L15.7,4l2.8-0.3l0.8-0.8l1.1-0.7l1.5,0.2l0.6-0.1c-2-0.9-4.2-1.5-6.6-1.5c-1.1,0-2.2,0.1-3.2,0.3
	c0.8,0.9,1.4,2,1.6,3.2L14.6,3.8z M16.5,2.3L18,1.5l1,0.6l-1.5,1.1l-1.4,0.1l-0.6-0.4L16.5,2.3z"/>
</svg>
